<?xml version="1.0" encoding="utf-8"?>
<!-- Generator: Adobe Illustrator 27.5.0, SVG Export Plug-In . SVG Version: 6.00 Build 0)  -->
<svg xmlns="http://www.w3.org/2000/svg" xmlns:xlink="http://www.w3.org/1999/xlink" version="1.1" x="0px" y="0px" viewBox="0 0 3710 3710" style="enable-;background-color:transparent;" xml:space="preserve">
<g id="Background">
	<g>
		<g>
			<rect style="fill:none;" width="3710" height="3710" fill="none"/>
		</g>
	</g>
</g>
<g id="Illustration">
	<g>
		<linearGradient id="SVGID_1_" gradientUnits="userSpaceOnUse" x1="3605.9702" y1="4070.3799" x2="1131.528" y2="997.2778">
			<stop offset="0" style="stop-color:#B37CFF"/>
			<stop offset="1" style="stop-color:#F895E7"/>
		</linearGradient>
		<path style="opacity:0.3;fill:url(#SVGID_1_);" d="M2925.236,2858.459c-56.837,59.835-110.615,98.423-153.105,128.909    c-499.455,358.365-1090.442,253.903-1216.044,228.392c-185.474-37.671-543.991-110.488-803.193-415.303    c-392.15-461.161-331.087-1187.707-26.908-1667.31c55.639-87.728,349.54-574.636,946.893-652.721    c361.512-47.256,782.918,48.054,1088.089,303.726C3401.548,1320.834,3355.946,2405.022,2925.236,2858.459z"/>
		<g>
			<g>
				<g style="opacity:0.3;">
					
						<linearGradient id="SVGID_00000107560995369314236990000002259422034901570697_" gradientUnits="userSpaceOnUse" x1="1230.3451" y1="820.7496" x2="1829.9943" y2="820.7496" gradientTransform="matrix(0.9604 -0.2787 0.2787 0.9604 -688.182 287.0882)">
						<stop offset="0" style="stop-color:#B37CFF"/>
						<stop offset="1" style="stop-color:#F895E7"/>
					</linearGradient>
					<path style="fill:url(#SVGID_00000107560995369314236990000002259422034901570697_);" d="M1347.703,775.261       c-5.427,1.338-10.91-1.98-12.245-7.406c-2.597-10.542-5.688-21.129-9.193-31.466c-1.773-5.23,0.977-10.901,6.15-12.765       c0.061-0.022,0.123-0.044,0.186-0.067c5.292-1.794,11.037,1.044,12.831,6.338c3.687,10.88,6.944,22.025,9.676,33.124       c1.251,5.074-1.572,10.2-6.384,11.933C1348.393,775.071,1348.053,775.177,1347.703,775.261z M1305.76,687.245       c-4.877-9.759-10.219-19.4-15.88-28.666c-2.912-4.765-1.411-10.995,3.357-13.91c4.796-2.909,10.998-1.408,13.911,3.361       c5.957,9.747,11.58,19.896,16.714,30.163c2.498,4.998,0.47,11.078-4.528,13.576c-0.363,0.181-0.733,0.339-1.105,0.473       C1313.472,693.956,1308.078,691.88,1305.76,687.245z M1259.036,615.206c-6.908-8.405-14.265-16.61-21.874-24.393       c-3.906-3.995-3.832-10.404,0.163-14.309c3.997-3.898,10.4-3.831,14.31,0.163c8.011,8.196,15.762,16.839,23.034,25.689       c3.549,4.317,2.924,10.693-1.391,14.243c-0.921,0.756-1.935,1.323-2.995,1.705       C1266.371,619.714,1261.827,618.604,1259.036,615.206z M1197.373,555.428c-8.622-6.657-17.635-13.014-26.785-18.901       c-4.699-3.025-6.058-9.287-3.035-13.985c3.028-4.696,9.287-6.052,13.985-3.035c9.634,6.2,19.121,12.895,28.198,19.896       c4.423,3.414,5.243,9.769,1.828,14.193c-1.222,1.583-2.819,2.705-4.571,3.336       C1203.85,558.064,1200.215,557.618,1197.373,555.428z M1123.93,510.876c-9.862-4.564-20.06-8.771-30.309-12.498       c-5.252-1.914-7.959-7.719-6.049-12.97c1.911-5.255,7.719-7.961,12.969-6.047c10.782,3.921,21.512,8.348,31.889,13.151       c5.071,2.345,7.28,8.359,4.932,13.432c-1.182,2.556-3.296,4.385-5.752,5.27C1129.193,512.084,1126.446,512.04,1123.93,510.876z        M1042.459,483.685c-10.642-2.274-21.513-4.117-32.314-5.481c-5.544-0.7-9.473-5.763-8.772-11.304       c0.699-5.546,5.758-9.473,11.305-8.775c11.366,1.433,22.811,3.376,34.01,5.769c5.465,1.169,8.947,6.544,7.781,12.01       c-0.758,3.55-3.293,6.262-6.475,7.408C1046.278,483.931,1044.376,484.095,1042.459,483.685z M680.313,583.872       c-3.9-4.002-3.817-10.409,0.186-14.309c8.201-7.988,16.863-15.726,25.742-22.997c4.325-3.541,10.7-2.906,14.239,1.419       c3.54,4.321,2.904,10.696-1.418,14.236c-8.431,6.903-16.655,14.252-24.441,21.839c-1.069,1.041-2.306,1.797-3.624,2.272       C687.379,587.637,683.172,586.809,680.313,583.872z M957.041,475.235c-10.875,0.15-21.877,0.773-32.699,1.858       c-5.562,0.555-10.521-3.502-11.077-9.062c-0.557-5.563,3.507-10.494,9.063-11.075c11.397-1.14,22.982-1.798,34.435-1.954       c5.587-0.076,10.18,4.39,10.257,9.979c0.061,4.431-2.737,8.238-6.686,9.661C959.304,475.012,958.196,475.217,957.041,475.235z        M748.602,528.07c-2.904-4.773-1.388-10.999,3.387-13.904c9.78-5.948,19.947-11.552,30.213-16.662       c4.997-2.514,11.076-0.449,13.568,4.552c2.489,5.002,0.451,11.076-4.552,13.568c-9.758,4.856-19.42,10.181-28.713,15.836       c-0.593,0.361-1.209,0.65-1.838,0.876C756.235,533.932,751.144,532.25,748.602,528.07z M871.891,486.085       c-10.561,2.578-21.15,5.646-31.474,9.122c-5.297,1.786-11.034-1.062-12.819-6.359c-1.759-5.227,0.991-10.886,6.156-12.746       c0.067-0.024,0.136-0.049,0.204-0.069c10.868-3.664,22.016-6.895,33.131-9.61c5.43-1.322,10.905,2.003,12.232,7.432       c1.239,5.07-1.585,10.184-6.389,11.914C872.594,485.89,872.246,485.995,871.891,486.085z"/>
					
						<linearGradient id="SVGID_00000090272408897469675900000006709307076398433157_" gradientUnits="userSpaceOnUse" x1="127.487" y1="729.1947" x2="161.1945" y2="729.1947" gradientTransform="matrix(-0.9408 0.339 0.339 0.9408 534.7739 -110.6604)">
						<stop offset="0" style="stop-color:#B37CFF"/>
						<stop offset="1" style="stop-color:#F895E7"/>
					</linearGradient>
					<path style="fill:url(#SVGID_00000090272408897469675900000006709307076398433157_);" d="M644.799,640.315       c1.874-0.675,3.571-1.908,4.812-3.658c3.019-4.255,6.179-8.516,9.387-12.671c3.417-4.42,2.604-10.777-1.818-14.192       c-4.421-3.419-10.782-2.61-14.194,1.82c-3.378,4.368-6.699,8.85-9.877,13.327c-3.234,4.556-2.163,10.875,2.392,14.107       C638.31,641.044,641.787,641.401,644.799,640.315z"/>
				</g>
				<g style="opacity:0.3;">
					
						<linearGradient id="SVGID_00000183928767642745240910000013471337653425435547_" gradientUnits="userSpaceOnUse" x1="302.4529" y1="986.7567" x2="325.5837" y2="986.7567" gradientTransform="matrix(-0.9408 0.339 0.339 0.9408 534.7739 -110.6604)">
						<stop offset="0" style="stop-color:#B37CFF"/>
						<stop offset="1" style="stop-color:#F895E7"/>
					</linearGradient>
					<path style="fill:url(#SVGID_00000183928767642745240910000013471337653425435547_);" d="M578.637,941.63       c4.594-1.655,7.438-6.444,6.502-11.396c-0.971-5.125-1.85-10.358-2.611-15.549c-0.812-5.53-5.952-9.354-11.48-8.543       c-5.552,0.816-9.354,5.954-8.543,11.481c0.803,5.466,1.728,10.977,2.748,16.373c1.039,5.491,6.333,9.099,11.824,8.062       C577.616,941.956,578.137,941.81,578.637,941.63z"/>
					
						<linearGradient id="SVGID_00000042010016699764236680000012957402660940890517_" gradientUnits="userSpaceOnUse" x1="1021.9701" y1="1214.3939" x2="1637.9746" y2="1214.3939" gradientTransform="matrix(0.9604 -0.2787 0.2787 0.9604 -688.182 287.0882)">
						<stop offset="0" style="stop-color:#B37CFF"/>
						<stop offset="1" style="stop-color:#F895E7"/>
					</linearGradient>
					<path style="fill:url(#SVGID_00000042010016699764236680000012957402660940890517_);" d="M1080.228,1245.865       c-5.344,1.635-11.002-1.372-12.637-6.719c-1.633-5.344,1.372-10.989,6.718-12.634c10.174-3.111,20.373-6.706,30.433-10.717       c5.159-2.077,11.078,0.462,13.147,5.653c2.07,5.191-0.46,11.077-5.65,13.148c-4.359,1.738-8.729,3.397-13.109,4.975       C1092.881,1241.823,1086.522,1243.942,1080.228,1245.865z M1148.167,1206.921c-2.752-4.861-1.042-11.035,3.821-13.787       c9.335-5.288,18.549-11.023,27.384-17.055c4.6-3.161,10.911-1.965,14.063,2.651c3.149,4.613,1.962,10.909-2.652,14.059       c-9.301,6.351-18.999,12.391-28.824,17.952c-0.51,0.289-1.034,0.528-1.566,0.72       C1155.839,1213.102,1150.633,1211.276,1148.167,1206.921z M1026.52,1258.343c-11.114,1.79-22.458,3.13-33.717,3.977       c-5.573,0.42-10.431-3.758-10.851-9.333c-0.419-5.571,3.759-10.421,9.332-10.849c10.693-0.802,21.463-2.074,32.016-3.776       c5.518-0.887,10.711,2.863,11.601,8.382c0.786,4.88-2.062,9.507-6.55,11.124       C1027.767,1258.079,1027.155,1258.24,1026.52,1258.343z M1219.803,1157.936c-3.754-4.138-3.443-10.54,0.698-14.292       c7.936-7.195,15.657-14.817,22.952-22.651c3.81-4.095,10.208-4.321,14.3-0.51c4.09,3.807,4.318,10.208,0.511,14.297       c-7.682,8.25-15.814,16.277-24.169,23.854c-1.01,0.914-2.153,1.591-3.362,2.026       C1226.991,1162.01,1222.64,1161.065,1219.803,1157.936z M937.705,1262.67c-11.229-0.698-22.585-1.887-33.755-3.534       c-5.528-0.814-9.348-5.954-8.535-11.482c0.813-5.532,5.957-9.352,11.485-8.537c10.611,1.563,21.397,2.693,32.061,3.354       c5.578,0.347,9.819,5.151,9.472,10.729c-0.259,4.156-2.991,7.569-6.672,8.895C940.5,1262.549,939.126,1262.758,937.705,1262.67       z M850.094,1247.413c-10.831-3.143-21.655-6.78-32.173-10.809c-5.219-2.002-7.828-7.851-5.829-13.071       c2.003-5.226,7.853-7.833,13.069-5.827c9.993,3.827,20.28,7.284,30.572,10.273c5.367,1.557,8.455,7.171,6.898,12.539       c-0.94,3.233-3.352,5.64-6.295,6.7C854.396,1247.917,852.225,1248.032,850.094,1247.413z M767.887,1213.425       c-9.895-5.43-19.67-11.339-29.053-17.558c-4.659-3.09-5.929-9.367-2.843-14.025c3.092-4.664,9.369-5.93,14.024-2.843       c8.916,5.913,18.203,11.523,27.608,16.684c4.899,2.688,6.691,8.84,4.002,13.737c-1.235,2.251-3.198,3.845-5.437,4.652       C773.552,1215.022,770.536,1214.878,767.887,1213.425z M695.053,1162.314c-8.467-7.461-16.714-15.371-24.509-23.51       c-3.866-4.035-3.728-10.441,0.309-14.307c4.029-3.859,10.44-3.724,14.306,0.311c7.401,7.727,15.231,15.237,23.275,22.325       c4.192,3.695,4.596,10.086,0.902,14.279c-1.168,1.324-2.602,2.269-4.153,2.828       C701.823,1165.45,697.924,1164.843,695.053,1162.314z M635.199,1096.414c-6.599-9.121-12.894-18.646-18.713-28.313       c-2.883-4.789-1.338-11.008,3.451-13.889c4.774-2.871,11.004-1.339,13.887,3.45c5.527,9.184,11.507,18.23,17.774,26.895       c3.275,4.525,2.259,10.853-2.268,14.127c-0.788,0.57-1.631,1.012-2.503,1.327C642.69,1101.5,637.903,1100.153,635.199,1096.414       z M591.321,1019.06c-3.283-7.619-6.371-15.434-9.178-23.224c-1.017-2.822-1.998-5.645-2.948-8.474       c-1.778-5.295,0.972-11.114,6.37-12.811c5.296-1.782,11.034,1.07,12.815,6.369c0.903,2.687,1.836,5.376,2.802,8.057       c2.669,7.408,5.602,14.833,8.723,22.078c2.212,5.131-0.157,11.085-5.289,13.295c-0.193,0.082-0.387,0.161-0.583,0.231       C599.042,1026.379,593.447,1024,591.321,1019.06z"/>
					
						<linearGradient id="SVGID_00000021082512943368035540000009423492338825129906_" gradientUnits="userSpaceOnUse" x1="-323.1956" y1="1375.1805" x2="-289.918" y2="1375.1805" gradientTransform="matrix(-0.9408 0.339 0.339 0.9408 534.7739 -110.6604)">
						<stop offset="0" style="stop-color:#B37CFF"/>
						<stop offset="1" style="stop-color:#F895E7"/>
					</linearGradient>
					<path style="fill:url(#SVGID_00000021082512943368035540000009423492338825129906_);" d="M1288.295,1095.417       c1.893-0.682,3.6-1.931,4.844-3.699c3.149-4.483,6.262-9.117,9.254-13.774c3.022-4.702,1.659-10.962-3.042-13.982       c-4.703-3.019-10.96-1.664-13.982,3.042c-2.843,4.423-5.801,8.825-8.789,13.082c-3.213,4.569-2.111,10.881,2.462,14.094       C1281.845,1096.149,1285.302,1096.496,1288.295,1095.417z"/>
				</g>
				<g>
					
						<linearGradient id="SVGID_00000068665166590111376180000010225900181986197648_" gradientUnits="userSpaceOnUse" x1="1360.3796" y1="503.5113" x2="748.579" y2="2050.7075" gradientTransform="matrix(0.9901 -0.1406 0.1406 0.9901 -353.4395 119.5996)">
						<stop offset="0" style="stop-color:#53D8FF"/>
						<stop offset="1" style="stop-color:#3840F7"/>
					</linearGradient>
					<path style="fill:url(#SVGID_00000068665166590111376180000010225900181986197648_);" d="M1258.601,924.509       c0.669-1.904,0.059-4.022-1.522-5.276l-45.092-35.775c2.912-26.722,1.584-54.101-4.363-81.116l40.94-40.406       c1.436-1.418,1.814-3.59,0.942-5.41l-29.83-62.264c-0.871-1.82-2.802-2.887-4.805-2.655l-57.145,6.584       c-17.327-21.564-37.831-39.757-60.481-54.232l0.378-57.557c0.013-2.018-1.256-3.821-3.158-4.491l-65.121-22.935       c-1.902-0.67-4.022-0.059-5.276,1.522l-35.774,45.092c-26.722-2.913-54.101-1.585-81.117,4.363l-40.406-40.94       c-1.418-1.436-3.589-1.815-5.409-0.943l-62.266,29.83c-1.82,0.872-2.885,2.802-2.654,4.806l6.585,57.145       c-21.564,17.326-39.757,37.831-54.232,60.481l-57.558-0.378c-2.017-0.013-3.822,1.254-4.491,3.158l-22.935,65.121       c-0.67,1.903-0.058,4.022,1.521,5.275l45.093,35.775c-2.913,26.722-1.584,54.1,4.363,81.116l-40.94,40.407       c-1.437,1.417-1.815,3.589-0.943,5.409l29.831,62.266c0.872,1.82,2.802,2.886,4.806,2.654l57.145-6.584       c17.327,21.564,37.831,39.756,60.48,54.232l-0.378,57.557c-0.014,2.017,1.254,3.821,3.158,4.492l65.121,22.935       c1.903,0.67,4.021,0.059,5.275-1.521l35.774-45.093c26.722,2.913,54.1,1.584,81.117-4.362l40.407,40.941       c1.417,1.434,3.589,1.814,5.409,0.942l62.265-29.831c1.819-0.872,2.886-2.802,2.655-4.806l-6.584-57.144       c21.564-17.327,39.755-37.832,54.232-60.481l57.558,0.378c2.017,0.013,3.821-1.255,4.491-3.158L1258.601,924.509z"/>
					<path style="opacity:0.56;fill:none;" d="M974.96,924.392c-37.508,7.582-74.191-16.76-81.776-54.271       c-3.675-18.17-0.053-36.683,10.198-52.128c10.247-15.443,25.898-25.977,44.071-29.647c37.508-7.582,74.192,16.76,81.777,54.271       c6.899,34.124-12.627,67.565-44.454,79.032C981.62,922.787,978.341,923.708,974.96,924.392z M916.871,826.947       c-7.859,11.843-10.636,26.036-7.819,39.969c5.815,28.755,33.943,47.424,62.699,41.608c28.768-5.807,47.424-33.943,41.61-62.702       c-5.815-28.755-33.943-47.424-62.699-41.609c-2.608,0.528-5.143,1.24-7.601,2.125       C932.386,810.186,923.259,817.323,916.871,826.947z"/>
					<path style="opacity:0.56;fill:none;" d="M1017.418,1016.432c5.466-1.969,10.865-4.225,16.177-6.769l0,0       c1.672-0.8,3.331-1.629,4.977-2.482c8.114-4.213,15.879-9.065,23.177-14.48c0.1-0.074,0.199-0.147,0.299-0.221       c0.281-0.211,0.562-0.421,0.842-0.635c0.547-0.411,1.089-0.83,1.63-1.247c1.422-1.101,1.91-2.961,1.333-4.568       c-0.141-0.39-0.345-0.766-0.612-1.111c-1.368-1.767-3.91-2.082-5.677-0.719c-9.093,7.045-19.006,13.154-29.465,18.162       c-51.942,24.895-110.669,19.637-156.289-8.745c-25.376-15.783-46.695-38.724-60.535-67.617       c-2.428-5.066-4.583-10.217-6.459-15.432c-12.638-35.089-12.823-73.141-0.265-108.793       c14.422-40.953,43.93-73.839,83.085-92.598c80.871-38.734,178.102-4.467,216.824,76.362c2.388,4.984,4.515,10.07,6.374,15.235       c8.061,22.383,11.134,46.282,8.915,69.991c-0.057,0.613,0.025,1.205,0.222,1.748c0.515,1.428,1.818,2.509,3.431,2.658       c2.227,0.202,4.202-1.421,4.407-3.655c2.329-24.891-0.895-49.983-9.358-73.482c-1.952-5.422-4.184-10.76-6.688-15.992       c-40.655-84.863-142.791-120.808-227.623-80.168c-41.108,19.693-72.082,54.217-87.223,97.21       c-13.184,37.428-12.989,77.375,0.277,114.212c1.972,5.474,4.234,10.881,6.779,16.198c19.696,41.109,54.218,72.086,97.21,87.227       C940.617,1029.908,980.574,1029.707,1017.418,1016.432z"/>
				</g>
			</g>
			<g>
				<g style="opacity:0.3;">
					
						<linearGradient id="SVGID_00000011745370777603238460000017936250737038965120_" gradientUnits="userSpaceOnUse" x1="-821.0151" y1="1361.9353" x2="-804.5638" y2="1361.9353" gradientTransform="matrix(-0.9408 0.339 0.339 0.9408 534.7739 -110.6604)">
						<stop offset="0" style="stop-color:#B37CFF"/>
						<stop offset="1" style="stop-color:#F895E7"/>
					</linearGradient>
					<path style="fill:url(#SVGID_00000011745370777603238460000017936250737038965120_);" d="M1763.969,908.771       c2.543-0.917,4.289-3.42,4.116-6.257c-0.319-5.296-0.803-10.655-1.44-15.926c-0.414-3.425-3.524-5.866-6.954-5.454       c-3.433,0.401-5.868,3.528-5.455,6.954c0.607,5.023,1.069,10.131,1.375,15.185c0.206,3.442,3.168,6.065,6.615,5.862       C1762.836,909.095,1763.42,908.969,1763.969,908.771z"/>
					
						<linearGradient id="SVGID_00000156573144053973813340000017209745250776535472_" gradientUnits="userSpaceOnUse" x1="1855.1865" y1="1089.4674" x2="2193.9719" y2="1089.4674" gradientTransform="matrix(0.9604 -0.2787 0.2787 0.9604 -688.182 287.0882)">
						<stop offset="0" style="stop-color:#B37CFF"/>
						<stop offset="1" style="stop-color:#F895E7"/>
					</linearGradient>
					<path style="fill:url(#SVGID_00000156573144053973813340000017209745250776535472_);" d="M1756.065,861.441       c-3.349,0.831-6.74-1.205-7.574-4.556c-2.108-8.452-4.673-16.895-7.625-25.089c-0.623-1.728-1.268-3.455-1.932-5.181       c-1.235-3.22,0.372-6.836,3.594-8.074c3.093-1.049,6.836,0.372,8.078,3.596c0.693,1.807,1.367,3.614,2.019,5.422       c3.095,8.589,5.785,17.442,7.992,26.306c0.783,3.136-0.959,6.313-3.939,7.387       C1756.48,861.324,1756.275,861.385,1756.065,861.441z M1725.768,797.735c-4.959-9.325-10.538-18.428-16.587-27.05       c-1.982-2.828-1.299-6.72,1.528-8.705c2.814-1.968,6.723-1.3,8.705,1.527c6.34,9.036,12.192,18.578,17.389,28.357       c1.62,3.048,0.464,6.833-2.584,8.456c-0.267,0.141-0.545,0.261-0.823,0.361       C1730.519,801.719,1727.246,800.511,1725.768,797.735z M1689.368,745.888c-7.081-7.815-14.728-15.264-22.733-22.15       c-2.614-2.249-2.911-6.197-0.661-8.811c2.259-2.623,6.194-2.919,8.813-0.664c8.394,7.218,16.415,15.039,23.842,23.229       c2.317,2.558,2.126,6.513-0.432,8.829c-0.625,0.562-1.331,0.979-2.077,1.248       C1693.809,748.401,1691.121,747.819,1689.368,745.888z M1641.34,704.568c-8.795-5.848-18.036-11.205-27.454-15.908       c-3.09-1.546-4.342-5.299-2.797-8.385c1.541-3.079,5.293-4.34,8.382-2.799c9.881,4.938,19.565,10.55,28.791,16.684       c2.874,1.91,3.654,5.793,1.744,8.668c-0.774,1.155-1.863,1.975-3.081,2.414C1645.125,705.89,1643.055,705.708,1641.34,704.568z        M1584.68,676.225c-9.949-3.532-20.206-6.479-30.495-8.766c-3.366-0.746-5.491-4.086-4.743-7.457       c0.748-3.37,4.084-5.5,7.457-4.744c10.782,2.395,21.536,5.487,31.963,9.184c3.251,1.157,4.953,4.729,3.799,7.979       c-0.652,1.837-2.075,3.18-3.775,3.793C1587.575,676.687,1586.097,676.727,1584.68,676.225z M1522.857,662.496       c-10.498-1.005-21.155-1.362-31.682-1.059c-3.448,0.1-6.327-2.618-6.425-6.066c-0.097-3.448,2.609-6.318,6.068-6.429       c11.037-0.318,22.22,0.058,33.232,1.111c3.435,0.332,5.954,3.382,5.625,6.815c-0.24,2.486-1.904,4.494-4.105,5.288       C1524.728,662.458,1523.808,662.589,1522.857,662.496z M1459.581,664.303c-10.391,1.597-20.821,3.869-31,6.758       c-3.321,0.938-6.776-0.99-7.716-4.311c-0.943-3.318,0.996-6.723,4.308-7.721c10.673-3.021,21.608-5.404,32.506-7.08       c3.412-0.523,6.604,1.818,7.128,5.229c0.462,3-1.298,5.832-4.053,6.825C1460.381,664.138,1459.989,664.24,1459.581,664.303z        M1361.669,693.379c-1.721-2.993-0.689-6.81,2.304-8.531c8.284-4.762,16.972-9.151,25.795-13.037       c1.338-0.598,2.678-1.172,4.024-1.742c3.126-1.424,6.847,0.154,8.182,3.345c1.338,3.183-0.159,6.842-3.341,8.183       c-1.264,0.527-2.523,1.072-3.8,1.642c-8.447,3.718-16.734,7.904-24.634,12.444c-0.325,0.188-0.662,0.342-1.001,0.464       C1366.4,697.156,1363.2,696.045,1361.669,693.379z"/>
				</g>
				<g style="opacity:0.3;">
					
						<linearGradient id="SVGID_00000148624356972584496500000002810648227580244665_" gradientUnits="userSpaceOnUse" x1="1690.0405" y1="1414.4487" x2="2064.707" y2="1414.4487" gradientTransform="matrix(0.9604 -0.2787 0.2787 0.9604 -688.182 287.0882)">
						<stop offset="0" style="stop-color:#B37CFF"/>
						<stop offset="1" style="stop-color:#F895E7"/>
					</linearGradient>
					<path style="fill:url(#SVGID_00000148624356972584496500000002810648227580244665_);" d="M1586.544,1174.015       c-10.294,3.559-20.896,6.516-31.509,8.803c-3.373,0.722-6.698-1.421-7.424-4.798c-0.727-3.378,1.452-6.673,4.798-7.424       c10.121-2.175,20.232-5,30.053-8.396c3.261-1.13,6.821,0.604,7.947,3.864c1.117,3.236-0.576,6.766-3.785,7.922       C1586.599,1173.995,1586.57,1174.006,1586.544,1174.015z M1608.43,1158.591c-1.509-3.102-0.218-6.843,2.885-8.351       c9.335-4.544,18.49-9.698,27.209-15.324c2.888-1.852,6.768-1.038,8.64,1.869c1.872,2.9,1.036,6.763-1.863,8.637       c-9.138,5.894-18.732,11.297-28.516,16.055c-0.207,0.1-0.412,0.188-0.625,0.264       C1613.197,1162.809,1609.843,1161.494,1608.43,1158.591z M1522.665,1187.728c-10.855,0.966-21.861,1.279-32.712,0.926       c-3.45-0.113-6.158-3.003-6.044-6.45c0.109-3.452,2.989-6.144,6.446-6.046c10.352,0.338,20.848,0.04,31.205-0.877       c3.439-0.305,6.472,2.235,6.778,5.667c0.257,2.892-1.497,5.496-4.104,6.435       C1523.74,1187.561,1523.216,1187.679,1522.665,1187.728z M1662.875,1125.222c-2.212-2.648-1.856-6.591,0.792-8.803       c7.969-6.654,15.606-13.862,22.7-21.432c2.361-2.511,6.318-2.64,8.832-0.289c2.519,2.362,2.649,6.318,0.287,8.836       c-7.437,7.941-15.449,15.505-23.808,22.48c-0.579,0.481-1.218,0.841-1.887,1.082       C1667.391,1127.96,1664.604,1127.291,1662.875,1125.222z M1457.389,1185.597c-10.744-1.669-21.499-4.015-31.97-6.97       c-3.322-0.938-5.254-4.393-4.317-7.715c0.937-3.322,4.388-5.26,7.714-4.317c9.986,2.824,20.243,5.058,30.491,6.646       c3.409,0.53,5.746,3.723,5.215,7.138c-0.361,2.336-1.981,4.171-4.062,4.921       C1459.511,1185.643,1458.461,1185.762,1457.389,1185.597z M1394.521,1167.866c-10.052-4.202-19.938-9.054-29.382-14.415       c-3-1.702-4.052-5.514-2.348-8.515c1.699-3,5.515-4.057,8.521-2.35c9.006,5.11,18.439,9.736,28.031,13.747       c3.184,1.33,4.686,4.993,3.355,8.177c-0.704,1.681-2.058,2.896-3.651,3.47       C1397.629,1168.491,1396.021,1168.493,1394.521,1167.866z M1337.702,1135.591c-8.761-6.49-17.198-13.576-25.075-21.053       c-2.505-2.38-2.606-6.333-0.229-8.837c2.374-2.503,6.333-2.6,8.833-0.231c7.511,7.134,15.556,13.889,23.911,20.071       c2.774,2.056,3.358,5.971,1.301,8.743c-0.76,1.032-1.777,1.756-2.897,2.159       C1341.645,1137.128,1339.448,1136.882,1337.702,1135.591z"/>
					
						<linearGradient id="SVGID_00000089573618624797487550000002434511718875405976_" gradientUnits="userSpaceOnUse" x1="-724.2322" y1="1509.2256" x2="-699.0645" y2="1509.2256" gradientTransform="matrix(-0.9408 0.339 0.339 0.9408 534.7739 -110.6604)">
						<stop offset="0" style="stop-color:#B37CFF"/>
						<stop offset="1" style="stop-color:#F895E7"/>
					</linearGradient>
					<path style="fill:url(#SVGID_00000089573618624797487550000002434511718875405976_);" d="M1713.631,1080.285       c1.134-0.409,2.161-1.149,2.926-2.196c3.153-4.321,6.19-8.756,9.033-13.18c1.864-2.903,1.024-6.772-1.88-8.639       c-2.903-1.854-6.767-1.019-8.639,1.88c-2.709,4.22-5.609,8.45-8.615,12.575c-2.034,2.789-1.42,6.7,1.368,8.731       C1709.567,1080.724,1711.745,1080.964,1713.631,1080.285z"/>
				</g>
				<g>
					
						<linearGradient id="SVGID_00000072993726255644279450000006561803946006831794_" gradientUnits="userSpaceOnUse" x1="1858.6627" y1="700.5209" x2="1246.8608" y2="2247.72" gradientTransform="matrix(0.9901 -0.1406 0.1406 0.9901 -353.4395 119.5996)">
						<stop offset="0" style="stop-color:#53D8FF"/>
						<stop offset="1" style="stop-color:#3840F7"/>
					</linearGradient>
					<path style="fill:url(#SVGID_00000072993726255644279450000006561803946006831794_);" d="M1696.724,962.514       c0.448-1.274,0.039-2.691-1.018-3.531l-30.173-23.939c1.949-17.881,1.059-36.201-2.92-54.279l27.396-27.039       c0.961-0.949,1.214-2.402,0.631-3.62l-19.961-41.664c-0.582-1.218-1.875-1.932-3.215-1.777l-38.239,4.406       c-11.594-14.43-25.314-26.604-40.471-36.29l0.252-38.515c0.009-1.35-0.84-2.557-2.113-3.006l-43.576-15.347       c-1.273-0.449-2.692-0.04-3.531,1.018l-23.938,30.173c-17.881-1.949-36.202-1.06-54.28,2.92l-27.038-27.396       c-0.949-0.961-2.402-1.214-3.619-0.631l-41.665,19.961c-1.218,0.584-1.93,1.875-1.776,3.216l4.406,38.239       c-14.43,11.594-26.604,25.314-36.289,40.471l-38.516-0.253c-1.35-0.009-2.557,0.84-3.005,2.113l-15.347,43.577       c-0.448,1.273-0.039,2.69,1.018,3.529l30.174,23.939c-1.949,17.881-1.061,36.201,2.919,54.279l-27.396,27.039       c-0.961,0.948-1.215,2.401-0.631,3.619l19.961,41.665c0.583,1.217,1.875,1.931,3.216,1.776l38.238-4.406       c11.594,14.43,25.315,26.604,40.471,36.29l-0.253,38.515c-0.009,1.35,0.839,2.557,2.113,3.006l43.576,15.347       c1.274,0.448,2.691,0.039,3.531-1.018l23.938-30.174c17.881,1.949,36.202,1.06,54.28-2.92l27.038,27.396       c0.949,0.96,2.402,1.214,3.62,0.631l41.665-19.962c1.217-0.583,1.931-1.875,1.776-3.216l-4.406-38.238       c14.43-11.594,26.603-25.315,36.289-40.471l38.516,0.253c1.35,0.009,2.557-0.84,3.005-2.113L1696.724,962.514z"/>
					<path style="opacity:0.56;fill:none;" d="M1507.092,963.252c-12.379,2.507-24.991,0.039-35.512-6.945       c-10.52-6.979-17.693-17.641-20.194-30.019c-5.166-25.546,11.394-50.488,36.968-55.706       c25.552-5.159,50.538,11.424,55.699,36.966c2.504,12.377,0.038,24.988-6.943,35.509c-5.676,8.552-13.785,14.892-23.269,18.309       C1511.661,962.151,1509.404,962.782,1507.092,963.252z M1463.636,923.807c1.841,9.107,7.116,16.949,14.857,22.088       c7.737,5.133,17.015,6.948,26.119,5.108l0,0c9.102-1.853,16.945-7.118,22.084-14.859c5.137-7.734,6.947-17.015,5.108-26.116       c-3.8-18.793-22.178-30.991-40.973-27.196c-1.696,0.345-3.336,0.806-4.918,1.376       C1469.966,889.954,1460.179,906.714,1463.636,923.807z"/>
					<path style="opacity:0.56;fill:none;" d="M1536.647,1027.31c3.721-1.341,7.401-2.881,11.043-4.621       c7.229-3.461,14.113-7.66,20.476-12.496c0.284-0.219,0.569-0.439,0.853-0.658c2.197-1.7,2.949-4.572,2.058-7.054       c-0.217-0.603-0.533-1.183-0.945-1.715c-2.113-2.729-6.035-3.21-8.766-1.111c-5.898,4.571-12.316,8.524-19.072,11.757       l-0.003,0.001c-0.37,0.178-0.745,0.352-1.115,0.525c-16.06,7.506-33.382,10.724-50.619,9.669       c-9.356-0.573-18.693-2.412-27.79-5.524c-0.074-0.025-0.148-0.05-0.222-0.076c-0.227-0.081-0.452-0.155-0.676-0.237       c-26.511-9.339-47.801-28.44-59.944-53.789c-1.574-3.28-2.966-6.612-4.183-9.988c-8.181-22.716-8.299-47.35-0.172-70.434       c9.339-26.511,28.443-47.796,53.788-59.938c25.336-12.126,53.91-13.689,80.422-4.357c26.51,9.339,47.801,28.44,59.944,53.789       c1.548,3.224,2.922,6.518,4.126,9.859c5.219,14.494,7.208,29.962,5.771,45.31c-0.088,0.946,0.037,1.861,0.343,2.698       c0.794,2.205,2.807,3.874,5.297,4.105c3.437,0.312,6.483-2.2,6.806-5.644c1.607-17.173-0.618-34.484-6.453-50.695       c-1.349-3.744-2.886-7.426-4.614-11.033c-13.589-28.363-37.407-49.733-67.071-60.18c-29.659-10.443-61.605-8.741-89.97,4.872       c-28.361,13.585-49.732,37.4-60.176,67.066c-9.097,25.821-8.963,53.382,0.191,78.796c1.359,3.772,2.918,7.505,4.675,11.173       C1416.958,1022.286,1480.556,1047.52,1536.647,1027.31z"/>
				</g>
			</g>
		</g>
		
			<linearGradient id="SVGID_00000028301813267317678880000004457198149400532148_" gradientUnits="userSpaceOnUse" x1="455.9999" y1="1984.3622" x2="3254" y2="1984.3622">
			<stop offset="0" style="stop-color:#2B3582"/>
			<stop offset="1" style="stop-color:#150E42"/>
		</linearGradient>
		<path style="fill:url(#SVGID_00000028301813267317678880000004457198149400532148_);" d="M3223.485,3019.967H486.515    c-16.853,0-30.515-13.662-30.515-30.515V979.273c0-16.853,13.662-30.515,30.515-30.515h2736.971    c16.853,0,30.515,13.662,30.515,30.515v2010.179C3254,3006.305,3240.338,3019.967,3223.485,3019.967z"/>
		
			<linearGradient id="SVGID_00000085225737512692670020000015041837668878498181_" gradientUnits="userSpaceOnUse" x1="1910.1604" y1="797.317" x2="1785.7461" y2="2985.5574">
			<stop offset="0" style="stop-color:#A737D5"/>
			<stop offset="0.34" style="stop-color:#BF3DB6"/>
			<stop offset="1" style="stop-color:#EF497A"/>
		</linearGradient>
		<path style="fill:url(#SVGID_00000085225737512692670020000015041837668878498181_);" d="M3137.931,2939.244H548.336    c-16.853,0-30.515-13.662-30.515-30.515V1043.675c0-16.853,13.662-30.515,30.515-30.515h2589.595    c16.853,0,30.515,13.662,30.515,30.515v1865.054C3168.446,2925.582,3154.784,2939.244,3137.931,2939.244z"/>
		<path style="opacity:0.17;fill:none;" d="M3110.375,2913.602H575.99c-16.853,0-30.515-13.662-30.515-30.515V1092.402    c0-16.853,13.662-30.515,30.515-30.515h2534.385c16.853,0,30.515,13.662,30.515,30.515v1790.686    C3140.889,2899.94,3127.228,2913.602,3110.375,2913.602z"/>
		<path style="opacity:0.59;fill:none;" d="M1375.54,2751.65h-30.542c-3.557,0-6.44-2.883-6.44-6.44V1121.015    c0-3.557,2.884-6.44,6.44-6.44h30.542c3.557,0,6.44,2.884,6.44,6.44V2745.21C1381.98,2748.767,1379.097,2751.65,1375.54,2751.65z"/>
		<path style="opacity:0.59;fill:none;" d="M2295.892,2742.814h-30.542c-3.557,0-6.44-2.883-6.44-6.44V1112.179    c0-3.557,2.884-6.44,6.44-6.44h30.542c3.557,0,6.44,2.883,6.44,6.44v1624.194    C2302.333,2739.93,2299.449,2742.814,2295.892,2742.814z"/>
		<g>
			<g>
				
					<linearGradient id="SVGID_00000041253503098424453850000008244741743475944346_" gradientUnits="userSpaceOnUse" x1="2817.7219" y1="1261.4615" x2="2497.6511" y2="2650.5725">
					<stop offset="0" style="stop-color:#FDF53F"/>
					<stop offset="1" style="stop-color:#D93C65"/>
				</linearGradient>
				<path style="fill:url(#SVGID_00000041253503098424453850000008244741743475944346_);" d="M3081.559,1788.187h-676.441      c-11.474,0-20.776-9.302-20.776-20.776v-366.247c0-11.474,9.302-20.776,20.776-20.776h676.441      c11.474,0,20.776,9.302,20.776,20.776v366.247C3102.334,1778.885,3093.033,1788.187,3081.559,1788.187z"/>
				<path style="opacity:0.42;fill:none;" d="M3056.469,1770.87h-635.852c-11.474,0-20.776-9.302-20.776-20.776v-331.613      c0-11.474,9.302-20.776,20.776-20.776h635.852c11.474,0,20.776,9.302,20.776,20.776v331.613      C3077.245,1761.569,3067.943,1770.87,3056.469,1770.87z"/>
			</g>
			<path style="fill:none;" d="M3038.662,1529.374h-317.55c-3.047,0-5.517-2.47-5.517-5.517v-26.164     c0-3.047,2.47-5.517,5.517-5.517h317.55c3.047,0,5.517,2.47,5.517,5.517v26.164     C3044.179,1526.904,3041.709,1529.374,3038.662,1529.374z"/>
			<path style="fill:none;" d="M3038.662,1609.087h-317.55c-3.047,0-5.517-2.47-5.517-5.517v-26.164     c0-3.047,2.47-5.517,5.517-5.517h317.55c3.047,0,5.517,2.47,5.517,5.517v26.164     C3044.179,1606.616,3041.709,1609.087,3038.662,1609.087z"/>
			<path style="fill:none;" d="M3038.662,1685.55h-317.55c-3.047,0-5.517-2.47-5.517-5.517v-26.164     c0-3.047,2.47-5.517,5.517-5.517h317.55c3.047,0,5.517,2.47,5.517,5.517v26.164     C3044.179,1683.079,3041.709,1685.55,3038.662,1685.55z"/>
			<path style="fill:none;" d="M2574.969,1554.173h-123.793c-4.05,0-7.333-3.283-7.333-7.333v-101.061     c0-4.05,3.283-7.333,7.333-7.333h123.793c4.05,0,7.333,3.283,7.333,7.333v101.061     C2582.302,1550.89,2579.019,1554.173,2574.969,1554.173z"/>
			
				<linearGradient id="SVGID_00000100362582471028382980000011703669407781092504_" gradientUnits="userSpaceOnUse" x1="2670.5811" y1="1212.0115" x2="2325.5081" y2="1800.9702">
				<stop offset="0" style="stop-color:#A737D5"/>
				<stop offset="1" style="stop-color:#EF497A"/>
			</linearGradient>
			<path style="fill:url(#SVGID_00000100362582471028382980000011703669407781092504_);" d="M2472.156,1492.224L2472.156,1492.224     c5.017-2.944,11.473-1.187,14.307,3.893l13.329,23.894c1.334,2.392,4.825,2.241,5.947-0.258l33.06-73.602     c1.649-3.672,7.117-2.43,7.057,1.594c-0.338,22.513-6.311,65.307-42.283,101.128c0,0-19.823-7.705-35.788-42.761     C2465.479,1501.048,2467.357,1495.039,2472.156,1492.224z"/>
		</g>
		<g>
			<g>
				
					<linearGradient id="SVGID_00000062889528937450929570000015275852268309390999_" gradientUnits="userSpaceOnUse" x1="1908.4818" y1="1246.2998" x2="1588.411" y2="2635.4106">
					<stop offset="0" style="stop-color:#FDF53F"/>
					<stop offset="1" style="stop-color:#D93C65"/>
				</linearGradient>
				<path style="fill:url(#SVGID_00000062889528937450929570000015275852268309390999_);" d="M2170.905,1779.159h-676.441      c-11.474,0-20.776-9.302-20.776-20.776v-366.247c0-11.474,9.302-20.776,20.776-20.776h676.441      c11.474,0,20.776,9.302,20.776,20.776v366.247C2191.681,1769.857,2182.379,1779.159,2170.905,1779.159z"/>
				<path style="opacity:0.42;fill:none;" d="M2145.815,1761.842h-635.851c-11.474,0-20.776-9.302-20.776-20.776v-331.613      c0-11.474,9.302-20.776,20.776-20.776h635.851c11.474,0,20.776,9.302,20.776,20.776v331.613      C2166.591,1752.54,2157.29,1761.842,2145.815,1761.842z"/>
			</g>
			<path style="fill:none;" d="M2128.009,1520.346h-317.55c-3.047,0-5.517-2.47-5.517-5.517v-26.164     c0-3.047,2.47-5.517,5.517-5.517h317.55c3.047,0,5.517,2.47,5.517,5.517v26.164     C2133.526,1517.876,2131.056,1520.346,2128.009,1520.346z"/>
			<path style="fill:none;" d="M2128.009,1600.058h-317.55c-3.047,0-5.517-2.47-5.517-5.517v-26.164     c0-3.047,2.47-5.517,5.517-5.517l317.55,0c3.047,0,5.517,2.47,5.517,5.517v26.164     C2133.526,1597.588,2131.056,1600.058,2128.009,1600.058z"/>
			<path style="fill:none;" d="M2128.009,1676.521h-317.55c-3.047,0-5.517-2.47-5.517-5.517v-26.164     c0-3.047,2.47-5.517,5.517-5.517h317.55c3.047,0,5.517,2.47,5.517,5.517v26.164     C2133.526,1674.051,2131.056,1676.521,2128.009,1676.521z"/>
			<path style="fill:none;" d="M1664.315,1545.145h-123.793c-4.05,0-7.333-3.283-7.333-7.333V1436.75     c0-4.05,3.283-7.333,7.333-7.333h123.793c4.05,0,7.333,3.283,7.333,7.333v101.061     C1671.649,1541.861,1668.365,1545.145,1664.315,1545.145z"/>
		</g>
		<g>
			<g>
				
					<linearGradient id="SVGID_00000157270610892413809460000013977234121618781610_" gradientUnits="userSpaceOnUse" x1="1910.5704" y1="1715.0083" x2="1590.4996" y2="3104.1191">
					<stop offset="0" style="stop-color:#FDF53F"/>
					<stop offset="1" style="stop-color:#D93C65"/>
				</linearGradient>
				<path style="fill:url(#SVGID_00000157270610892413809460000013977234121618781610_);" d="M2172.994,2247.867h-676.441      c-11.474,0-20.776-9.302-20.776-20.776v-366.247c0-11.474,9.302-20.776,20.776-20.776h676.441      c11.474,0,20.776,9.302,20.776,20.776v366.247C2193.77,2238.566,2184.468,2247.867,2172.994,2247.867z"/>
				<path style="opacity:0.42;fill:none;" d="M2147.904,2230.551h-635.852c-11.474,0-20.776-9.302-20.776-20.776v-331.613      c0-11.474,9.302-20.776,20.776-20.776h635.852c11.474,0,20.776,9.302,20.776,20.776v331.613      C2168.68,2221.249,2159.378,2230.551,2147.904,2230.551z"/>
			</g>
			<path style="fill:none;" d="M2130.098,1989.054h-317.55c-3.047,0-5.517-2.47-5.517-5.517v-26.164     c0-3.047,2.47-5.517,5.517-5.517h317.55c3.047,0,5.517,2.47,5.517,5.517v26.164     C2135.615,1986.584,2133.145,1989.054,2130.098,1989.054z"/>
			<path style="fill:none;" d="M2130.098,2068.767h-317.55c-3.047,0-5.517-2.47-5.517-5.517v-26.164     c0-3.047,2.47-5.517,5.517-5.517h317.55c3.047,0,5.517,2.47,5.517,5.517v26.164     C2135.615,2066.297,2133.145,2068.767,2130.098,2068.767z"/>
			<path style="fill:none;" d="M2130.098,2145.23h-317.55c-3.047,0-5.517-2.47-5.517-5.517v-26.164     c0-3.047,2.47-5.517,5.517-5.517h317.55c3.047,0,5.517,2.47,5.517,5.517v26.164     C2135.615,2142.76,2133.145,2145.23,2130.098,2145.23z"/>
			<path style="fill:none;" d="M1666.404,2013.853h-123.793c-4.05,0-7.333-3.283-7.333-7.333v-101.061     c0-4.05,3.283-7.333,7.333-7.333h123.793c4.05,0,7.333,3.283,7.333,7.333v101.061     C1673.737,2010.57,1670.454,2013.853,1666.404,2013.853z"/>
		</g>
		<g>
			<g>
				
					<linearGradient id="SVGID_00000173877086288075020670000006678183999273322170_" gradientUnits="userSpaceOnUse" x1="995.1329" y1="1230.0363" x2="675.062" y2="2619.1472">
					<stop offset="0" style="stop-color:#FDF53F"/>
					<stop offset="1" style="stop-color:#D93C65"/>
				</linearGradient>
				<path style="fill:url(#SVGID_00000173877086288075020670000006678183999273322170_);" d="M1259.322,1755.232H582.881      c-11.474,0-20.776-9.302-20.776-20.776v-366.247c0-11.474,9.302-20.776,20.776-20.776h676.441      c11.474,0,20.776,9.302,20.776,20.776v366.247C1280.098,1745.93,1270.796,1755.232,1259.322,1755.232z"/>
				<path style="opacity:0.42;fill:none;" d="M1234.232,1737.915H598.38c-11.474,0-20.776-9.302-20.776-20.776v-331.613      c0-11.474,9.302-20.776,20.776-20.776h635.852c11.474,0,20.776,9.302,20.776,20.776v331.613      C1255.008,1728.613,1245.706,1737.915,1234.232,1737.915z"/>
			</g>
			<path style="fill:none;" d="M1216.426,1496.419h-317.55c-3.047,0-5.517-2.47-5.517-5.517v-26.164     c0-3.047,2.47-5.517,5.517-5.517h317.55c3.047,0,5.517,2.47,5.517,5.517v26.164     C1221.943,1493.949,1219.473,1496.419,1216.426,1496.419z"/>
			<path style="fill:none;" d="M1216.426,1576.131h-317.55c-3.047,0-5.517-2.47-5.517-5.517v-26.164     c0-3.047,2.47-5.517,5.517-5.517h317.55c3.047,0,5.517,2.47,5.517,5.517v26.164     C1221.943,1573.661,1219.473,1576.131,1216.426,1576.131z"/>
			<path style="fill:none;" d="M1216.426,1652.594h-317.55c-3.047,0-5.517-2.47-5.517-5.517v-26.164     c0-3.047,2.47-5.517,5.517-5.517h317.55c3.047,0,5.517,2.47,5.517,5.517v26.164     C1221.943,1650.124,1219.473,1652.594,1216.426,1652.594z"/>
			<path style="fill:none;" d="M752.732,1521.218H628.939c-4.05,0-7.333-3.283-7.333-7.333v-101.061     c0-4.05,3.283-7.333,7.333-7.333h123.793c4.05,0,7.333,3.283,7.333,7.333v101.061     C760.065,1517.934,756.782,1521.218,752.732,1521.218z"/>
		</g>
		<g>
			<g>
				
					<linearGradient id="SVGID_00000129171033223377035210000013209381448077800366_" gradientUnits="userSpaceOnUse" x1="2805.4827" y1="1853.2883" x2="2608.5212" y2="2496.9294">
					<stop offset="0" style="stop-color:#53D8FF"/>
					<stop offset="1" style="stop-color:#3840F7"/>
				</linearGradient>
				<path style="fill:url(#SVGID_00000129171033223377035210000013209381448077800366_);" d="M3081.559,2260.267h-676.441      c-11.474,0-20.776-9.302-20.776-20.776v-366.247c0-11.474,9.302-20.776,20.776-20.776h676.441      c11.474,0,20.776,9.302,20.776,20.776v366.247C3102.334,2250.965,3093.033,2260.267,3081.559,2260.267z"/>
				<path style="opacity:0.42;fill:none;" d="M3056.469,2242.95h-635.852c-11.474,0-20.776-9.302-20.776-20.776v-331.613      c0-11.474,9.302-20.776,20.776-20.776h635.852c11.474,0,20.776,9.302,20.776,20.776v331.613      C3077.245,2233.648,3067.943,2242.95,3056.469,2242.95z"/>
			</g>
			<path style="fill:none;" d="M3038.662,2001.454h-317.55c-3.047,0-5.517-2.47-5.517-5.517v-26.164     c0-3.047,2.47-5.517,5.517-5.517h317.55c3.047,0,5.517,2.47,5.517,5.517v26.164     C3044.179,1998.984,3041.709,2001.454,3038.662,2001.454z"/>
			<path style="fill:none;" d="M3038.662,2081.166h-317.55c-3.047,0-5.517-2.47-5.517-5.517v-26.164     c0-3.047,2.47-5.517,5.517-5.517h317.55c3.047,0,5.517,2.47,5.517,5.517v26.164     C3044.179,2078.696,3041.709,2081.166,3038.662,2081.166z"/>
			<path style="fill:none;" d="M3038.662,2157.629h-317.55c-3.047,0-5.517-2.47-5.517-5.517v-26.164     c0-3.047,2.47-5.517,5.517-5.517h317.55c3.047,0,5.517,2.47,5.517,5.517v26.164     C3044.179,2155.159,3041.709,2157.629,3038.662,2157.629z"/>
			<path style="fill:none;" d="M2574.969,2026.253h-123.793c-4.05,0-7.333-3.283-7.333-7.333v-101.061     c0-4.05,3.283-7.333,7.333-7.333h123.793c4.05,0,7.333,3.283,7.333,7.333v101.061     C2582.302,2022.969,2579.019,2026.253,2574.969,2026.253z"/>
		</g>
		<g>
			
				<linearGradient id="SVGID_00000010996938608563707080000008531133635422950548_" gradientUnits="userSpaceOnUse" x1="2836.4053" y1="1745.6844" x2="2953.8022" y2="2689.9641">
				<stop offset="0" style="stop-color:#FDF53F"/>
				<stop offset="1" style="stop-color:#D93C65"/>
			</linearGradient>
			<path style="fill:url(#SVGID_00000010996938608563707080000008531133635422950548_);" d="M2875.596,2231.362     c129.414-17.658,164.808,7.446,164.808,7.446l-57.256,101.916c0,0-127.856,4.224-223.1-61.479     c16.154-19.351,26.972-40.365,33.762-56.64C2817.928,2231.165,2845.408,2235.48,2875.596,2231.362z"/>
			
				<linearGradient id="SVGID_00000009557938206643472940000003190264302352723349_" gradientUnits="userSpaceOnUse" x1="-3257.6465" y1="2091.7949" x2="-3130.5093" y2="2091.7949" gradientTransform="matrix(-0.9986 0.0528 0.0528 0.9986 -573.0768 242.301)">
				<stop offset="0" style="stop-color:#F9B776"/>
				<stop offset="1" style="stop-color:#F47960"/>
			</linearGradient>
			<path style="fill:url(#SVGID_00000009557938206643472940000003190264302352723349_);" d="M2661.963,2051.316     c-0.045-4.175,5.54-5.606,7.509-1.925l18.457,34.516c3.566,6.67,4.997,14.273,4.102,21.782l-4.73,20.907     c-1.209,10.138,1.958,20.293,8.748,27.919c16.246,18.248,50.542,51.33,97.762,68.089c-6.79,16.276-17.608,37.289-33.762,56.64     c-34.947-24.107-65.51-57.617-83.748-104.221c-7.659-1.917-13.071-8.747-13.188-16.642L2661.963,2051.316z"/>
			<g>
				
					<linearGradient id="SVGID_00000114776622859203426370000004018268016010118555_" gradientUnits="userSpaceOnUse" x1="-3538.9529" y1="2809.2593" x2="-3454.1345" y2="2809.2593" gradientTransform="matrix(-0.9937 -0.112 -0.112 0.9937 -107.8015 24.4975)">
					<stop offset="0" style="stop-color:#2B3582"/>
					<stop offset="1" style="stop-color:#150E42"/>
				</linearGradient>
				<path style="fill:url(#SVGID_00000114776622859203426370000004018268016010118555_);" d="M3085.835,3181.4      c0,0,7.702,15.819,5.397,57.417c-0.214,3.876-3.635,6.813-7.492,6.378l-73.25-8.259c-2.948-0.332-4.725-3.459-3.466-6.145      c5.725-12.22,22.195-41.729,53.148-56.163L3085.835,3181.4z"/>
				
					<linearGradient id="SVGID_00000028312039770417532220000009725619692885026980_" gradientUnits="userSpaceOnUse" x1="-3530.3525" y1="2769.8447" x2="-3495.9517" y2="2769.8447" gradientTransform="matrix(-0.9937 -0.112 -0.112 0.9937 -107.8015 24.4975)">
					<stop offset="0" style="stop-color:#F9B776"/>
					<stop offset="1" style="stop-color:#F47960"/>
				</linearGradient>
				<path style="fill:url(#SVGID_00000028312039770417532220000009725619692885026980_);" d="M3092.177,3153.751l-8.06,34.272      c-0.695,2.957-3.315,5.091-6.352,5.099c-4.058,0.01-9.918-0.322-15.472-1.893c-5.048-1.428-8.234-6.428-7.646-11.641      l3.782-33.54L3092.177,3153.751z"/>
				
					<linearGradient id="SVGID_00000080187516098959979140000014038248355231433876_" gradientUnits="userSpaceOnUse" x1="-3276.4053" y1="2708.6152" x2="-3143.3247" y2="2708.6152" gradientTransform="matrix(-0.9997 -0.025 -0.025 0.9997 -289.448 402.4167)">
					<stop offset="0" style="stop-color:#2B3582"/>
					<stop offset="1" style="stop-color:#150E42"/>
				</linearGradient>
				<path style="fill:url(#SVGID_00000080187516098959979140000014038248355231433876_);" d="M2905.259,3159.406      c0,0,13.557,22.275,12.504,52.361c-0.248,7.086-6.323,12.584-13.412,12.407l-114.448-2.857      c-5.359-0.134-7.363-7.074-2.901-10.045c22.037-14.667,65.312-42.015,96.378-52.412L2905.259,3159.406z"/>
				
					<linearGradient id="SVGID_00000047023229097618158190000016269867287888410249_" gradientUnits="userSpaceOnUse" x1="-3275.1697" y1="2674.1653" x2="-3240.9585" y2="2674.1653" gradientTransform="matrix(-0.9991 -0.0423 -0.0423 0.9991 -244.7394 332.9418)">
					<stop offset="0" style="stop-color:#F9B776"/>
					<stop offset="1" style="stop-color:#F47960"/>
				</linearGradient>
				<path style="fill:url(#SVGID_00000047023229097618158190000016269867287888410249_);" d="M2915.076,3126.449l-10.712,42.76      c-1.198,4.783-6.055,7.827-10.818,6.55c-2.895-0.776-6.29-2.172-9.877-4.632c-3.408-2.338-5.007-6.578-4.119-10.615      l11.405-51.87L2915.076,3126.449z"/>
				
					<linearGradient id="SVGID_00000178924032040544065490000004852425593227289991_" gradientUnits="userSpaceOnUse" x1="3239.0964" y1="2357.946" x2="2932.7993" y2="3164.5293">
					<stop offset="0" style="stop-color:#53D8FF"/>
					<stop offset="1" style="stop-color:#3840F7"/>
				</linearGradient>
				<path style="fill:url(#SVGID_00000178924032040544065490000004852425593227289991_);" d="M3144.705,2542.072      c0,0,27.672,30.553,29.78,63.796c2.108,33.243-79.783,560.459-79.783,560.459s-31.302,1.648-46.058-9.736      c0,0,19.975-345.899,14.653-426.949c0,0-115.034,347.669-143.037,409.675c0,0-30.007,0.263-38.917-6.445      c0,0,71.663-459.41,105.564-538.7L3144.705,2542.072z"/>
				
					<linearGradient id="SVGID_00000055692132516298922780000000733874217975590307_" gradientUnits="userSpaceOnUse" x1="2960.4004" y1="1531.2017" x2="3118.6299" y2="2934.8601">
					<stop offset="0" style="stop-color:#53D8FF"/>
					<stop offset="1" style="stop-color:#3840F7"/>
				</linearGradient>
				<path style="fill:url(#SVGID_00000055692132516298922780000000733874217975590307_);" d="M3065.827,2718.152      c-0.35,0-0.703-0.063-1.048-0.195c-1.505-0.578-2.254-2.267-1.677-3.771l18.695-48.594c0.264-0.685,0.776-1.245,1.433-1.57      l30.238-14.909c1.446-0.711,3.196-0.119,3.908,1.327c0.713,1.446,0.119,3.195-1.325,3.908l-29.215,14.405l-18.285,47.528      C3068.104,2717.441,3066.998,2718.152,3065.827,2718.152z"/>
				
					<linearGradient id="SVGID_00000005257838267691860600000000743476354467879074_" gradientUnits="userSpaceOnUse" x1="-3263.9685" y1="1901.4564" x2="-3333.5647" y2="2560.5776" gradientTransform="matrix(-0.9937 -0.112 -0.112 0.9937 -107.8015 24.4975)">
					<stop offset="0" style="stop-color:#FDF53F"/>
					<stop offset="1" style="stop-color:#D93C65"/>
				</linearGradient>
				<path style="fill:url(#SVGID_00000005257838267691860600000000743476354467879074_);" d="M2827.011,2253.898      c51.067-43.931,140.299-56.32,191.542-59.764c22.449-1.509,42.755,13.178,48.188,35.012      c15.749,63.295,59.391,228.268,68.241,256.773c7.261,23.386,15.012,46.301,19.961,60.639      c2.958,8.566-1.524,17.911-10.076,20.906c-44.545,15.601-123.165,30.069-154.999,35.583c-7.002,1.213-13.179-4.638-12.383-11.7      c0.675-5.989-0.29-12.05-2.793-17.531l-94.793-207.673c-81.848,72.465-146.392,72.657-193.345,49.483      c11.097-24.506,19.355-49.38,24.816-74.618C2785.073,2336.774,2827.011,2253.898,2827.011,2253.898z"/>
				
					<linearGradient id="SVGID_00000112602652531749564170000000668592075026734980_" gradientUnits="userSpaceOnUse" x1="-2839.8088" y1="1780.5586" x2="-3114.5266" y2="2122.334" gradientTransform="matrix(-0.9937 -0.112 -0.112 0.9937 -107.8015 24.4975)">
					<stop offset="0" style="stop-color:#F9B776"/>
					<stop offset="1" style="stop-color:#F47960"/>
				</linearGradient>
				<path style="fill:url(#SVGID_00000112602652531749564170000000668592075026734980_);" d="M2593.385,2313.995l15.01-15.927      c38.974,33.776,73.51,44.634,102.975,42.94c-5.461,25.238-13.719,50.112-24.816,74.618      C2624.698,2385.096,2593.385,2313.995,2593.385,2313.995z"/>
				
					<linearGradient id="SVGID_00000066478490262899811920000007773906789458294928_" gradientUnits="userSpaceOnUse" x1="-2787.7244" y1="1822.4167" x2="-3062.448" y2="2164.1995" gradientTransform="matrix(-0.9937 -0.112 -0.112 0.9937 -107.8015 24.4975)">
					<stop offset="0" style="stop-color:#F9B776"/>
					<stop offset="1" style="stop-color:#F47960"/>
				</linearGradient>
				<path style="fill:url(#SVGID_00000066478490262899811920000007773906789458294928_);" d="M2602.55,2315.347l-73.837-5.423      l-63.423-45.435c10.402-4.995,63.941,13.648,63.941,13.648s58.414-2.211,73.961-0.478c12.913,1.438,8.975,19.797,7.27,25.976      c-0.348,1.26-0.603,2.014-0.603,2.014L2602.55,2315.347z"/>
				
					<linearGradient id="SVGID_00000024693551899523667240000001220744730016426156_" gradientUnits="userSpaceOnUse" x1="-3148.8784" y1="1574.0226" x2="-3414.9392" y2="2062.8833" gradientTransform="matrix(-0.9937 -0.112 -0.112 0.9937 -107.8015 24.4975)">
					<stop offset="0" style="stop-color:#F9B776"/>
					<stop offset="1" style="stop-color:#F47960"/>
				</linearGradient>
				<path style="fill:url(#SVGID_00000024693551899523667240000001220744730016426156_);" d="M2959.642,2096.235l28.115,99.024      c0,0-48.045,25.823-83.57,18.844l-9.762-87.29L2959.642,2096.235z"/>
				<g>
					
						<linearGradient id="SVGID_00000016798398489909138080000000901240846607064740_" gradientUnits="userSpaceOnUse" x1="5667.9727" y1="2002.6249" x2="5522.2661" y2="2114.1123" gradientTransform="matrix(-0.989 -0.1476 -0.1476 0.989 8783.668 913.5228)">
						<stop offset="0" style="stop-color:#F9B776"/>
						<stop offset="1" style="stop-color:#F47960"/>
					</linearGradient>
					<path style="fill:url(#SVGID_00000016798398489909138080000000901240846607064740_);" d="M2895.351,2007.34       c0,0-33.853,54.143-40.084,84.283c-6.231,30.141-15.724,48.885,18.504,60.252c34.229,11.367,66.448-1.719,87.006-29.6       c0,0,32.094-42.899,29.31-62.845C2987.302,2039.484,2895.351,2007.34,2895.351,2007.34z"/>
					
						<linearGradient id="SVGID_00000114057268782459084370000014669387140227955868_" gradientUnits="userSpaceOnUse" x1="5565.3975" y1="1914.3495" x2="5701.1074" y2="2089.0754" gradientTransform="matrix(-0.989 -0.1476 -0.1476 0.989 8783.668 913.5228)">
						<stop offset="0" style="stop-color:#2B3582"/>
						<stop offset="1" style="stop-color:#150E42"/>
					</linearGradient>
					<path style="fill:url(#SVGID_00000114057268782459084370000014669387140227955868_);" d="M2952.018,2098.716l-1.868-1.181       c-2.379-1.503-3.016-4.697-1.368-6.978c6.385-8.835,19.322-29.334,7.606-36.316c-15.099-8.998-76.87-31.502-87.24-56.162       c-9.968-23.699,5.926-49.998,24.709-55.348c1.257-0.358,2.582,0.273,3.015,1.506l1.052,2.993       c0.719,2.049,3.568,2.18,4.472,0.206l0,0c0.869-1.895,3.561-1.886,4.393,0.026c3.215,7.394,12.986,20.062,42.65,30.247       c42.16,14.475,68.204,36.299,64.445,66.364c-0.239,1.91,1.628,3.271,3.401,2.523c3.493-1.473,8.752-1.623,14.739,5.155       c10.412,11.789,1.662,37.032-27.629,54.498c-1.391,0.83-1.67,2.767-0.458,3.841c4.273,3.787,10.232,12.17-9.504,19.211       c-20.415,7.283-34.408,4.346-39.71,2.637c-1.319-0.425-1.994-1.864-1.5-3.159l9.734-25.464c0.551-1.441-0.373-3.022-1.899-3.25       L2952.018,2098.716z"/>
					
						<linearGradient id="SVGID_00000098902438577090165190000007664825342301657006_" gradientUnits="userSpaceOnUse" x1="5649.8984" y1="1979.0072" x2="5504.1929" y2="2090.4941" gradientTransform="matrix(-0.989 -0.1476 -0.1476 0.989 8783.668 913.5228)">
						<stop offset="0" style="stop-color:#F9B776"/>
						<stop offset="1" style="stop-color:#F47960"/>
					</linearGradient>
					<path style="fill:url(#SVGID_00000098902438577090165190000007664825342301657006_);" d="M2950.096,2104.109       c0,0,15.141-35.554,30.176-22.707c15.036,12.847-14.794,40.161-28.333,39.554L2950.096,2104.109z"/>
				</g>
			</g>
			
				<linearGradient id="SVGID_00000114755888799423968400000015549723635018807717_" gradientUnits="userSpaceOnUse" x1="2655.9724" y1="1862.6841" x2="2267.9946" y2="2873.4688">
				<stop offset="0" style="stop-color:#CB236D"/>
				<stop offset="1" style="stop-color:#4C246D"/>
			</linearGradient>
			<path style="fill:url(#SVGID_00000114755888799423968400000015549723635018807717_);" d="M2460.908,2105.253L2460.908,2105.253     c15.996-9.386,36.582-3.785,45.617,12.411l42.499,76.183c4.254,7.626,15.383,7.144,18.961-0.822l105.409-234.673     c5.258-11.707,22.692-7.749,22.5,5.083c-1.076,71.782-20.123,208.228-134.816,322.44c0,0-63.205-24.568-114.106-136.341     C2439.618,2133.39,2445.607,2114.231,2460.908,2105.253z"/>
		</g>
		<path style="opacity:0.59;fill:none;" d="M1266.782,1247.147H575.421c-7.354,0-13.316-5.962-13.316-13.316v-136.914    c0-7.354,5.962-13.316,13.316-13.316h691.361c7.354,0,13.316,5.962,13.316,13.316v136.914    C1280.098,1241.185,1274.136,1247.147,1266.782,1247.147z"/>
		<path style="opacity:0.59;fill:none;" d="M2169.497,1250.518h-691.361c-7.354,0-13.316-5.962-13.316-13.316v-136.914    c0-7.354,5.962-13.316,13.316-13.316h691.361c7.354,0,13.316,5.962,13.316,13.316v136.914    C2182.813,1244.556,2176.851,1250.518,2169.497,1250.518z"/>
		<path style="opacity:0.59;fill:none;" d="M3077.481,1250.518H2386.12c-7.354,0-13.316-5.962-13.316-13.316v-136.914    c0-7.354,5.962-13.316,13.316-13.316h691.361c7.354,0,13.316,5.962,13.316,13.316v136.914    C3090.797,1244.556,3084.835,1250.518,3077.481,1250.518z"/>
		<g>
			<g>
				<g>
					
						<linearGradient id="SVGID_00000181807336724571658200000009773785029511510919_" gradientUnits="userSpaceOnUse" x1="843.6909" y1="2163.2336" x2="484.0901" y2="3133.5854">
						<stop offset="0" style="stop-color:#CB236D"/>
						<stop offset="1" style="stop-color:#4C246D"/>
					</linearGradient>
					<path style="fill:url(#SVGID_00000181807336724571658200000009773785029511510919_);" d="M676.119,3015.392       c0,0-148.157-342.265-35.985-702.847c0.733-2.354,4.9-1.902,5.206,0.571C672.381,2531.199,680.444,2767.386,676.119,3015.392z"/>
					<path style="opacity:0.59;fill:none;" d="M675.529,3008.186c-0.831,0-1.594-0.546-1.83-1.386       c-26.284-93.379-36.28-252.055-40.038-368.72c-4.069-126.343-1.905-232.005-1.882-233.057c0.022-1.048,0.721-1.873,1.944-1.862       c1.05,0.022,1.884,0.892,1.862,1.944c-0.022,1.052-2.185,106.628,1.881,232.871c3.752,116.45,13.717,274.783,39.898,367.791       c0.284,1.011-0.305,2.063-1.317,2.349C675.875,3008.164,675.7,3008.186,675.529,3008.186z"/>
				</g>
				<g>
					
						<linearGradient id="SVGID_00000144302616909538895170000003009575956487704749_" gradientUnits="userSpaceOnUse" x1="363.3352" y1="3134.072" x2="922.7126" y2="2272.1729">
						<stop offset="0" style="stop-color:#CB236D"/>
						<stop offset="1" style="stop-color:#4C246D"/>
					</linearGradient>
					<path style="fill:url(#SVGID_00000144302616909538895170000003009575956487704749_);" d="M710.046,2959.613       c0,0-91.525-419.948,81.448-844.914c1.129-2.775,5.239-1.962,5.133,1.022C787.299,2378.919,755.882,2662.584,710.046,2959.613z       "/>
					<path style="opacity:0.59;fill:none;" d="M710.977,2950.557c-0.97,0-1.799-0.74-1.892-1.724       c-20.599-217.307,57.777-718.897,58.571-723.94c0.164-1.033,1.124-1.754,2.176-1.583c1.039,0.164,1.749,1.137,1.585,2.178       c-0.794,5.036-79.098,506.157-58.545,722.988c0.1,1.044-0.667,1.973-1.713,2.074       C711.098,2950.554,711.037,2950.557,710.977,2950.557z"/>
				</g>
				<g>
					
						<linearGradient id="SVGID_00000058591338552809077950000005963665798119532691_" gradientUnits="userSpaceOnUse" x1="894.678" y1="2683.1643" x2="477.9975" y2="2894.3582">
						<stop offset="0" style="stop-color:#CB236D"/>
						<stop offset="1" style="stop-color:#4C246D"/>
					</linearGradient>
					<path style="fill:url(#SVGID_00000058591338552809077950000005963665798119532691_);" d="M724.57,3073.482       c0,0-43.849-366.348,173.978-696.031c1.422-2.153,5.389-0.835,4.954,1.651C865.145,2598.4,802.715,2831.451,724.57,3073.482z"/>
					<path style="opacity:0.59;fill:none;" d="M726.705,3066.339c-0.013,0-0.026,0-0.039,0c-1.05-0.022-1.884-0.892-1.864-1.94       c1.951-96.984,39.383-254.511,70.443-369.579c33.636-124.611,67.245-227.657,67.581-228.683c0.325-1,1.401-1.546,2.399-1.219       c1,0.327,1.544,1.401,1.217,2.401c-0.334,1.026-33.917,103.993-67.527,228.512c-31.001,114.856-68.365,272.048-70.307,368.642       C728.587,3065.51,727.738,3066.339,726.705,3066.339z"/>
				</g>
			</g>
			
				<linearGradient id="SVGID_00000114768940582775952520000011350788471299127987_" gradientUnits="userSpaceOnUse" x1="1000.8378" y1="2239.7253" x2="1823.3824" y2="311.4645">
				<stop offset="0" style="stop-color:#CB236D"/>
				<stop offset="1" style="stop-color:#4C246D"/>
			</linearGradient>
			<path style="fill:url(#SVGID_00000114768940582775952520000011350788471299127987_);" d="M613.35,2870.724h201.368     c15.072,0,26.347,14.187,23.549,28.996c-12.023,63.636-36.376,119.859-61.687,166.894c-5.655,10.508-16.604,17.218-28.537,17.218     h-65.709c-12.116,0-23.227-6.588-29.063-17.206c-31.593-57.487-47.034-114.532-59.918-170.351     C590.386,2883.414,600.151,2870.724,613.35,2870.724z"/>
		</g>
		<g>
			<g>
				
					<linearGradient id="SVGID_00000057124752003464459080000008641450125432061850_" gradientUnits="userSpaceOnUse" x1="2309.75" y1="3125.9038" x2="2056.9714" y2="3388.6934" gradientTransform="matrix(0.9919 -0.1267 0.1267 0.9919 -389.5181 -270.6762)">
					<stop offset="0" style="stop-color:#CB236D"/>
					<stop offset="1" style="stop-color:#4C246D"/>
				</linearGradient>
				<path style="fill:url(#SVGID_00000057124752003464459080000008641450125432061850_);" d="M2290.984,2974.124      c0,0-142.782,157.414-262.028,90.885c-95.837-53.468,40.321-39.497,155.817-64.76c9.064-1.983,6.69-15.53-2.507-14.311      c-90.364,11.981-228.248,21.773-252.197-25.345c-36.154-71.13-1.093-48.061,108.941-37.786      c110.034,10.275,131.234-16.895,59.411-33.818c-71.824-16.922-186.083,20.507-212.699-14.298      c-26.616-34.804-41.165-103.892-51.774-133.604c-10.609-29.712,136.969-74.294,176.867-35.289      c39.898,39.005,72.297,126.066,119.645,141.961c47.348,15.895-3.584-61.117-34.986-100.867      c-31.402-39.75-43.85-69.292,18.887-59.811c62.738,9.481,95.902,86.051,102.515,143.206      c6.614,57.155,28.711,89.124,27.711,60.847c-1-28.277-11.262-114.992-31.314-141.064      C2193.219,2723.998,2336.364,2755.816,2290.984,2974.124z"/>
				<path style="opacity:0.53;fill:none;" d="M2279.364,2975.625c-0.628,0.239-1.363,0.134-1.905-0.343      c-122.554-107.217-328.103-185.146-330.165-185.92c-0.971-0.365-1.461-1.445-1.097-2.418c0.363-0.966,1.447-1.459,2.417-1.095      c2.068,0.775,208.244,78.937,331.318,186.611c0.779,0.681,0.858,1.866,0.177,2.647      C2279.898,2975.347,2279.641,2975.519,2279.364,2975.625z"/>
			</g>
			<g>
				
					<linearGradient id="SVGID_00000171715541150183549140000012953345323000145829_" gradientUnits="userSpaceOnUse" x1="2059.1167" y1="3660.0137" x2="2667.4595" y2="2888.833" gradientTransform="matrix(0.9919 -0.1267 0.1267 0.9919 -389.5181 -270.6762)">
					<stop offset="0" style="stop-color:#CB236D"/>
					<stop offset="1" style="stop-color:#4C246D"/>
				</linearGradient>
				<path style="fill:url(#SVGID_00000171715541150183549140000012953345323000145829_);" d="M2377.185,3074.66      c0,0-260.754,8.603-303.976-153.359c-34.737-130.167,69.267,1.805,190.207,82.042c9.491,6.297,19.407-7.369,10.475-14.436      c-87.76-69.429-214.188-182.622-193.109-243.988c31.821-92.639,41.436-42.022,126.381,63.761s127.009,101.262,80.568,23.486      c-46.441-77.776-177.05-146.531-169.104-199.729c7.945-53.198,56.423-125.046,73.553-159.782      c17.13-34.736,182.51,57.281,182.208,125.777c-0.302,68.496-49.375,171.436-22.939,226.757      c26.436,55.321,50.819-55.372,59.035-117.015c8.217-61.643,23.626-97.855,68.865-34.446      c45.239,63.409,6.067,158.061-38.671,212.719c-44.738,54.659-54.043,101.45-29.969,76.412      c24.074-25.039,91.756-108.167,97.61-148.118C2514.173,2774.787,2608.413,2928.165,2377.185,3074.66z"/>
				<path style="opacity:0.53;fill:none;" d="M2365.934,3065.698c-0.747-0.349-1.282-1.087-1.325-1.972      c-10.176-199.639-117.075-447.426-118.155-449.905c-0.508-1.167,0.026-2.522,1.194-3.033c1.162-0.505,2.522,0.028,3.031,1.195      c1.084,2.486,108.313,251.024,118.53,451.512c0.066,1.268-0.912,2.351-2.183,2.417      C2366.635,3065.932,2366.264,3065.852,2365.934,3065.698z"/>
			</g>
		</g>
		<g>
			<g>
				<g>
					
						<linearGradient id="SVGID_00000032606489924590993580000016501645443982325645_" gradientUnits="userSpaceOnUse" x1="1839.7954" y1="1587.6921" x2="1412.3833" y2="2247.5574">
						<stop offset="0" style="stop-color:#53D8FF"/>
						<stop offset="1" style="stop-color:#3840F7"/>
					</linearGradient>
					<path style="fill:url(#SVGID_00000032606489924590993580000016501645443982325645_);" d="M2065.543,2084.73h-789.609       c-11.474,0-20.776-9.302-20.776-20.776v-430.523c0-11.474,9.302-20.776,20.776-20.776h789.609       c11.474,0,20.776,9.302,20.776,20.776v430.523C2086.319,2075.428,2077.018,2084.73,2065.543,2084.73z"/>
					<path style="opacity:0.42;fill:none;" d="M2036.499,2064.684h-742.623c-11.474,0-20.776-9.302-20.776-20.776v-390.431       c0-11.474,9.302-20.776,20.776-20.776h742.623c11.474,0,20.776,9.302,20.776,20.776v390.431       C2057.275,2055.382,2047.973,2064.684,2036.499,2064.684z"/>
				</g>
				<path style="fill:none;" d="M2013.481,1785.123H1644.14c-3.047,0-5.517-2.47-5.517-5.517v-32.027      c0-3.047,2.47-5.517,5.517-5.517h369.341c3.047,0,5.517,2.47,5.517,5.517v32.027      C2018.998,1782.653,2016.528,1785.123,2013.481,1785.123z"/>
				<path style="fill:none;" d="M2013.481,1877.4H1644.14c-3.047,0-5.517-2.47-5.517-5.517v-32.027      c0-3.047,2.47-5.517,5.517-5.517h369.341c3.047,0,5.517,2.47,5.517,5.517v32.027      C2018.998,1874.93,2016.528,1877.4,2013.481,1877.4z"/>
				<path style="fill:none;" d="M2013.481,1965.915H1644.14c-3.047,0-5.517-2.47-5.517-5.517v-32.027      c0-3.047,2.47-5.517,5.517-5.517h369.341c3.047,0,5.517,2.47,5.517,5.517v32.027      C2018.998,1963.445,2016.528,1965.915,2013.481,1965.915z"/>
				<path style="fill:none;" d="M1476.987,1813.831H1331.37c-4.05,0-7.333-3.283-7.333-7.333v-119.302      c0-4.05,3.283-7.333,7.333-7.333h145.617c4.05,0,7.333,3.283,7.333,7.333v119.302      C1484.32,1810.548,1481.037,1813.831,1476.987,1813.831z"/>
			</g>
			<g>
				
					<linearGradient id="SVGID_00000085242568187751117730000011164484270076269455_" gradientUnits="userSpaceOnUse" x1="-492.0661" y1="1878.7526" x2="-258.4495" y2="2406.2441" gradientTransform="matrix(-1 0 0 1 778.9335 0)">
					<stop offset="0" style="stop-color:#F9B776"/>
					<stop offset="1" style="stop-color:#F47960"/>
				</linearGradient>
				<path style="fill:url(#SVGID_00000085242568187751117730000011164484270076269455_);" d="M1256.427,1973.878l0.76-25.304      l-26.449-52.519c-4.838-9.607-4.876-20.931-0.102-30.57l29.963-60.494c0,0,17.304,131.308,21.856,142.221      c4.552,10.913-12.346,30.521-12.346,30.521L1256.427,1973.878z"/>
				
					<linearGradient id="SVGID_00000158739567745563627880000006464438872648236209_" gradientUnits="userSpaceOnUse" x1="-306.6119" y1="1937.5505" x2="-154.8557" y2="2199.1301" gradientTransform="matrix(-1 0 0 1 778.9335 0)">
					<stop offset="0" style="stop-color:#2B3582"/>
					<stop offset="1" style="stop-color:#150E42"/>
				</linearGradient>
				<path style="fill:url(#SVGID_00000158739567745563627880000006464438872648236209_);" d="M1037.497,1951.718      c0,0-28.279,13.755-33.478,29.556c-4.172,12.678-35.441,14.313-38.529,39.247c-1.595,12.874-11.121,23.184-23.944,25.15      c-31.935,4.895-81.152,21.479-89.026,76.926c-6.01,42.323,15.565,58.371,38.208,63.926c16.63,4.08,27.682,20.256,24.319,37.045      c-3.227,16.104,1.585,34.721,29.484,49.443c62.52,32.99,124.957-78.156,124.957-78.156l12.796-194.066L1037.497,1951.718z"/>
				
					<linearGradient id="SVGID_00000152975426080167556950000000516699020816827583_" gradientUnits="userSpaceOnUse" x1="-518.7012" y1="1898.9954" x2="-349.682" y2="2280.6299" gradientTransform="matrix(-1 0 0 1 778.9335 0)">
					<stop offset="0" style="stop-color:#F9B776"/>
					<stop offset="1" style="stop-color:#F47960"/>
				</linearGradient>
				<path style="fill:url(#SVGID_00000152975426080167556950000000516699020816827583_);" d="M1256.427,1973.878      c0,0,5.711,168.285-142.157,163.347c0,0,45.624,74.441,69.434,78.956c0,0,151.279-52.515,98.75-268.968L1256.427,1973.878z"/>
				
					<linearGradient id="SVGID_00000124160150383825434640000000989618246777783176_" gradientUnits="userSpaceOnUse" x1="-1.6643" y1="3205.4199" x2="69.6748" y2="3205.4199" gradientTransform="matrix(-1 0 0 1 778.9335 0)">
					<stop offset="0" style="stop-color:#2B3582"/>
					<stop offset="1" style="stop-color:#150E42"/>
				</linearGradient>
				<path style="fill:url(#SVGID_00000124160150383825434640000000989618246777783176_);" d="M780.513,3168.578l-4.046,33.26      c-4.212,15.807-24.561,55.635-50.677,53.042c-16.068-1.595-18.003-48.543-15.765-55.584      c4.081-12.839,11.547-32.113,22.311-43.455h36.895C776.052,3155.84,781.337,3161.807,780.513,3168.578z"/>
				
					<linearGradient id="SVGID_00000141447476874957988230000003147376398614660996_" gradientUnits="userSpaceOnUse" x1="-302.2194" y1="3466.1294" x2="-199.8601" y2="2269.804" gradientTransform="matrix(-1 0 0 1 778.9335 0)">
					<stop offset="0" style="stop-color:#F9B776"/>
					<stop offset="1" style="stop-color:#F47960"/>
				</linearGradient>
				<path style="fill:url(#SVGID_00000141447476874957988230000003147376398614660996_);" d="M1069.486,2778.967l6.227,36.632      c0,0-20.854,211.233-24.563,295.726c-0.582,13.247,2.845,26.337,9.798,37.628l36.261,58.885l-92.158-54.381l-1.835-11.246      l15.086-20.743l-19.761-236.633c-1.161-13.901,1.708-27.842,8.262-40.156l19.062-35.811L1069.486,2778.967z"/>
				
					<linearGradient id="SVGID_00000115495081338653576440000011313614198918374803_" gradientUnits="userSpaceOnUse" x1="-254.2496" y1="3172.6506" x2="-139.1579" y2="3172.6506" gradientTransform="matrix(-1 0 0 1 778.9335 0)">
					<stop offset="0" style="stop-color:#2B3582"/>
					<stop offset="1" style="stop-color:#150E42"/>
				</linearGradient>
				<path style="fill:url(#SVGID_00000115495081338653576440000011313614198918374803_);" d="M1103.279,3216.369h-29.409      c-5.505,0-10.697-2.527-14.054-6.89c-9.168-11.913-28.164-35.156-37.247-35.762c-12.227-0.817-10.663,42.652-10.663,42.652      h-6.854l-8.681-54.015c-2.185-13.591,4.574-27.054,16.778-33.421l0,0c0,0,2.795,20.67,17.951,29.813      c15.155,9.144,61.673,41.886,61.673,41.886s5.698-0.812,11.953,0.319C1114.005,3202.628,1112.708,3216.369,1103.279,3216.369z"/>
				
					<linearGradient id="SVGID_00000072263688672613743290000009428377102498216853_" gradientUnits="userSpaceOnUse" x1="-96.3175" y1="3483.9297" x2="6.0687" y2="2287.2905" gradientTransform="matrix(-1 0 0 1 778.9335 0)">
					<stop offset="0" style="stop-color:#F9B776"/>
					<stop offset="1" style="stop-color:#F47960"/>
				</linearGradient>
				<path style="fill:url(#SVGID_00000072263688672613743290000009428377102498216853_);" d="M943.26,2796.366      c0,0-122.168,231.742-141.589,284.653c-19.42,52.91-26.224,97.049-26.484,101.229c-0.407,6.532-8.53,12.796-30.923,12.796      c-11.556,0-17.216-4.632-19.987-9.116c-2.365-3.826-2.487-8.612-0.494-12.644c7.067-14.302,29.493-60.007,37.799-80.737      c9.917-24.75,31.248-136.915,42.946-175.913c11.699-38.998,24.922-81.301,75.868-120.268      C880.397,2796.366,915.37,2762.113,943.26,2796.366z"/>
				
					<linearGradient id="SVGID_00000120556372654058617980000003608049305395031453_" gradientUnits="userSpaceOnUse" x1="-345.855" y1="2348.2378" x2="-799.4419" y2="3034.8599" gradientTransform="matrix(-1 0 0 1 778.9335 0)">
					<stop offset="0" style="stop-color:#FDF53F"/>
					<stop offset="1" style="stop-color:#D93C65"/>
				</linearGradient>
				<path style="fill:url(#SVGID_00000120556372654058617980000003608049305395031453_);" d="M1020.436,2416.645      c17.893-75.819-0.109-132.937-19.014-168.149c-15.079-28.085-4.477-62.827,23.804-77.535      c44.2-22.986,89.044-33.736,89.044-33.736s87.578,64.028,77.189,114.144c-6.09,29.373-61.56,175.939-61.56,175.939      S1078.607,2451.583,1020.436,2416.645z"/>
				
					<linearGradient id="SVGID_00000108297914109919131410000003368150021784542122_" gradientUnits="userSpaceOnUse" x1="841.5121" y1="1554.5081" x2="921.7288" y2="2078.592">
					<stop offset="0" style="stop-color:#53D8FF"/>
					<stop offset="1" style="stop-color:#3840F7"/>
				</linearGradient>
				<path style="fill:url(#SVGID_00000108297914109919131410000003368150021784542122_);" d="M950.565,2482.756      c12.825-38.637,69.871-66.111,69.871-66.111c58.171,34.938,109.464,10.663,109.464,10.663s11.503,43.968,3.564,84.829      c-7.939,40.861-57.75,303.462-57.75,303.462c-78.485,15.903-199.195-16-199.195-16      C926.511,2710.841,937.74,2521.392,950.565,2482.756z"/>
				
					<linearGradient id="SVGID_00000052826480051821595010000017555925503020678063_" gradientUnits="userSpaceOnUse" x1="-313.4449" y1="2286.9114" x2="-294.217" y2="2146.2449" gradientTransform="matrix(-1 0 0 1 778.9335 0)">
					<stop offset="0" style="stop-color:#F9B776"/>
					<stop offset="1" style="stop-color:#F47960"/>
				</linearGradient>
				<path style="fill:url(#SVGID_00000052826480051821595010000017555925503020678063_);" d="M1057.016,2048.979l-25.622,115.086      c-2.453,10.137,6.788,8.479,17.037,6.546c16.784-3.165,38.416-9.682,45.648-22.742c0.736-1.329,1.103-2.832,1.311-4.337      l11.007-79.804c0.873-6.332-2.549-12.476-8.392-15.067l-21.241-9.418C1068.586,2035.617,1059.12,2040.284,1057.016,2048.979z"/>
				<g>
					
						<linearGradient id="SVGID_00000043428732397885614470000009105948065127574456_" gradientUnits="userSpaceOnUse" x1="-361.9769" y1="2105.5493" x2="-194.2124" y2="1806.985" gradientTransform="matrix(-1 0 0 1 778.9335 0)">
						<stop offset="0" style="stop-color:#F9B776"/>
						<stop offset="1" style="stop-color:#F47960"/>
					</linearGradient>
					<path style="fill:url(#SVGID_00000043428732397885614470000009105948065127574456_);" d="M1087.078,1939.4       c0,0,30.344,12.813,50.977,56.662c20.633,43.849,5.225,64.095-14.129,66.874c-19.354,2.779-48.297,2.356-78.912-25.97       C1014.399,2008.641,1047.631,1924.212,1087.078,1939.4z"/>
					
						<linearGradient id="SVGID_00000058575341972688897010000015121043260750206362_" gradientUnits="userSpaceOnUse" x1="-294.7206" y1="1930.652" x2="-142.9648" y2="2192.231" gradientTransform="matrix(-1 0 0 1 778.9335 0)">
						<stop offset="0" style="stop-color:#2B3582"/>
						<stop offset="1" style="stop-color:#150E42"/>
					</linearGradient>
					<path style="fill:url(#SVGID_00000058575341972688897010000015121043260750206362_);" d="M1065.594,2013.557       c0,0-22.894-64.152,33.984-64.911l13.384,9.354c0,0,20.869-35.568-13.384-52.547c-34.253-16.979-74.341-2.954-88.917,43.192       c-14.576,46.147-17.065,77.038,7.185,99.116c24.25,22.079,34.244-2.955,34.244-2.955s-13.206-20.65-7.83-31.698       c5.376-11.048,17.776,2.285,17.776,2.285L1065.594,2013.557z"/>
					
						<linearGradient id="SVGID_00000157996013959733075410000003862997104542501262_" gradientUnits="userSpaceOnUse" x1="-326.2664" y1="2125.6157" x2="-158.502" y2="1827.0511" gradientTransform="matrix(-1 0 0 1 778.9335 0)">
						<stop offset="0" style="stop-color:#F9B776"/>
						<stop offset="1" style="stop-color:#F47960"/>
					</linearGradient>
					<path style="fill:url(#SVGID_00000157996013959733075410000003862997104542501262_);" d="M1059.215,2020.702       c0,0-11.575-33.046-27.017-19.886c-15.442,13.16,12.55,30.526,23.509,36.15L1059.215,2020.702z"/>
				</g>
				
					<linearGradient id="SVGID_00000080919871730790563310000018107972035313802651_" gradientUnits="userSpaceOnUse" x1="940.449" y1="2364.3667" x2="1518.0087" y2="1968.9213">
					<stop offset="0" style="stop-color:#F9B776"/>
					<stop offset="1" style="stop-color:#F47960"/>
				</linearGradient>
				<path style="fill:url(#SVGID_00000080919871730790563310000018107972035313802651_);" d="M1363.089,2105.035      c0,0-77.536,174.095-325.193,80.175c-16.32-6.189-32.679,11.483-34.032,28.885l-0.731,9.403      c-1.96,25.208,18.612,46.458,43.864,45.18c90.443-4.575,220.346,48.292,334.464-105.012L1363.089,2105.035z"/>
				
					<linearGradient id="SVGID_00000118395752585989635960000001769906415261835157_" gradientUnits="userSpaceOnUse" x1="949.5847" y1="2377.7083" x2="1527.1434" y2="1982.2634">
					<stop offset="0" style="stop-color:#F9B776"/>
					<stop offset="1" style="stop-color:#F47960"/>
				</linearGradient>
				<path style="fill:url(#SVGID_00000118395752585989635960000001769906415261835157_);" d="M1381.459,2163.666      c0,0,12.957-38.133,16.212-61.968c3.255-23.835-8.727-77.333-19.024-92.376c-10.297-15.043-12.021,21.833-16.656,39.161      c-4.635,17.328,3.215,42.058,3.215,42.058l-4.735,32.407L1381.459,2163.666z"/>
			</g>
		</g>
	</g>
</g>
</svg>
