<?xml version="1.0" encoding="utf-8"?>
<!-- Generator: Adobe Illustrator 27.5.0, SVG Export Plug-In . SVG Version: 6.00 Build 0)  -->
<svg xmlns="http://www.w3.org/2000/svg" xmlns:xlink="http://www.w3.org/1999/xlink" version="1.1" x="0px" y="0px" viewBox="0 0 3710 3710" style="enable-;background-color:transparent;" xml:space="preserve">
<g id="Background">
	<g>
		<g>
			<rect style="fill:none;" width="3710" height="3710" fill="none"/>
		</g>
	</g>
</g>
<g id="Illustration">
	<g>
		<path style="fill:#F4F7FA;" d="M1663.941,742.018C1539.319,989.07,821.656,642.229,626.134,938.496    c-191.699,290.474,121.186,535.96-10.077,1199.022c-70.595,356.604-199.722,480.723-120.91,700.27    c81.304,226.485,322.467,383.389,539.056,438.298c446.792,113.27,641.436-244.892,1143.605-120.91    c172.799,42.662,231.634,105.287,413.107,105.795c43.462,0.121,382.158,1.366,559.209-196.479    c274.684-306.942-179.424-713.38-93.216-1655.297c14.41-157.43,44.26-333.626-52.886-517.321    c-134.62-254.554-418.114-341.335-527.363-377.187c-265.747-87.208-670.495-99.697-778.821,87.312    C1662.822,662.451,1691.978,686.438,1663.941,742.018z"/>
		<g>
			
				<linearGradient id="SVGID_1_" gradientUnits="userSpaceOnUse" x1="-7103.0107" y1="1363.4838" x2="-7564.979" y2="1908.3044" gradientTransform="matrix(1 0 0 1 8645.7275 0)">
				<stop offset="0" style="stop-color:#311944"/>
				<stop offset="1" style="stop-color:#893976"/>
			</linearGradient>
			<path style="fill:url(#SVGID_1_);" d="M1467.451,2194.071c-59.658-3.82-115.996-41.618-140.234-99.83l-341.756-820.89     c-31.116-74.747,3.987-159.344,78.795-189.344c75.336-30.205,192.777,5.373,224.695,80.911l350.604,829.794     c33.053,78.235-4.22,163.785-82.833,190.702C1537.361,2192.042,1487.132,2195.331,1467.451,2194.071z"/>
			
				<linearGradient id="SVGID_00000148652447925124179000000003019337791254894736_" gradientUnits="userSpaceOnUse" x1="-7159.916" y1="1315.2324" x2="-7621.8828" y2="1860.0513" gradientTransform="matrix(1 0 0 1 8645.7275 0)">
				<stop offset="0" style="stop-color:#311944"/>
				<stop offset="1" style="stop-color:#893976"/>
			</linearGradient>
			<path style="opacity:0.3;fill:url(#SVGID_00000148652447925124179000000003019337791254894736_);" d="M1064.256,1084.008     c75.336-30.206,192.777,5.372,224.695,80.91l320.573,758.715c-53.65-13.785-117.164-12.546-178.13-66.003     c-101.492-88.993-51.562-203.04-132.006-304.627c-36.771-46.436-104.81-95.323-243.31-110.031l-70.617-169.621     C954.345,1198.604,989.448,1114.007,1064.256,1084.008z"/>
		</g>
		<g>
			
				<linearGradient id="SVGID_00000130638586736481182610000011819917053811603133_" gradientUnits="userSpaceOnUse" x1="237.8794" y1="2785.0266" x2="606.3007" y2="2596.5315">
				<stop offset="0" style="stop-color:#FF9085"/>
				<stop offset="1" style="stop-color:#FB6FBB"/>
			</linearGradient>
			<path style="fill:url(#SVGID_00000130638586736481182610000011819917053811603133_);" d="M740.321,1679.376L541.849,2952.61     c-3.773,24.554,13.745,46.728,36.082,45.673l993.354-46.879L740.321,1679.376z"/>
			<g>
				
					<linearGradient id="SVGID_00000146481837448459303230000012622091296293641127_" gradientUnits="userSpaceOnUse" x1="739.6693" y1="2418.9436" x2="2855.6096" y2="2418.9436">
					<stop offset="0.0036" style="stop-color:#EBEFF2"/>
					<stop offset="1" style="stop-color:#FFFFFF"/>
				</linearGradient>
				<path style="fill:url(#SVGID_00000146481837448459303230000012622091296293641127_);" d="M2557.256,1705.911l-1778.789-55.017      c-25.942-0.802-42.953,19.063-37.913,44.372l288.536,1449.131c5.04,25.309,29.793,44.333,55.21,42.496l1742.759-125.939      c19.717-1.425,32.074-20.571,27.655-42.769l-253.06-1270.957C2597.234,1725.032,2577.381,1706.534,2557.256,1705.911z"/>
				
					<linearGradient id="SVGID_00000144305083112411056120000003778338229920698758_" gradientUnits="userSpaceOnUse" x1="2085.9595" y1="1856.9803" x2="3307.1226" y2="4106.9346" gradientTransform="matrix(1 0 0.2218 1 -1122.9679 1.000000e-04)">
					<stop offset="0" style="stop-color:#FF9085"/>
					<stop offset="1" style="stop-color:#FB6FBB"/>
				</linearGradient>
				<path style="fill:url(#SVGID_00000144305083112411056120000003778338229920698758_);" d="M2566.856,1705.911l-1778.789-55.017      c-25.943-0.802-42.953,19.063-37.914,44.372l288.536,1449.131c5.039,25.309,29.793,44.333,55.21,42.496l1742.759-125.939      c19.717-1.425,32.074-20.571,27.655-42.769l-253.06-1270.957C2606.834,1725.032,2586.981,1706.534,2566.856,1705.911z"/>
				<g style="opacity:0.3;">
					
						<linearGradient id="SVGID_00000039829479560579862270000007370596391119690929_" gradientUnits="userSpaceOnUse" x1="1714.189" y1="2066.4673" x2="2953.916" y2="4350.6255" gradientTransform="matrix(1 0 0.2218 1 -1122.9679 1.000000e-04)">
						<stop offset="0" style="stop-color:#FF9085"/>
						<stop offset="1" style="stop-color:#FB6FBB"/>
					</linearGradient>
					<path style="fill:url(#SVGID_00000039829479560579862270000007370596391119690929_);" d="M2102.642,2473.773       c-350.113-190.232-681.895-42.354-920.782-286.361c-147.097-150.25-174.101-362.986-169.689-529.586l-224.104-6.931       c-25.942-0.803-42.953,19.063-37.913,44.373l288.536,1449.131c5.039,25.308,29.792,44.332,55.209,42.495l1512.115-109.271       C2440.739,2718.872,2254.403,2556.232,2102.642,2473.773z"/>
				</g>
				<path style="fill:#D8DEE8;" d="M2777.137,3012.689l-1650.879,112.679c-27.429,1.872-54.159-18.797-59.609-46.173      l-257.046-1290.98c-5.451-27.376,12.858-48.996,40.8-48.294l1681.732,42.273c21.964,0.552,43.616,20.584,48.427,44.744      l226.854,1139.343C2812.225,2990.442,2798.698,3011.217,2777.137,3012.689z"/>
				
					<linearGradient id="SVGID_00000173129893892193120320000001921894701278293655_" gradientUnits="userSpaceOnUse" x1="2289.9753" y1="3260.9014" x2="2537.3188" y2="1480.0372" gradientTransform="matrix(1 0 0.2218 1 -1122.9679 1.000000e-04)">
					<stop offset="0.0036" style="stop-color:#EBEFF2"/>
					<stop offset="1" style="stop-color:#FFFFFF"/>
				</linearGradient>
				<path style="fill:url(#SVGID_00000173129893892193120320000001921894701278293655_);" d="M2784.54,3012.184l-1648.898,112.544      c-27.394,1.87-54.092-18.788-59.539-46.146L819.22,1788.426c-5.447-27.358,12.836-48.966,40.742-48.264l1679.713,42.223      c21.939,0.552,43.569,20.572,48.377,44.718l226.727,1138.702C2819.587,2989.951,2806.077,3010.714,2784.54,3012.184z"/>
				<g>
					<path style="fill:#D8DEE8;" d="M1696.728,2205.71l-179.99,1.114c-5.399,0.033-10.671-4.421-11.771-9.949l-29.774-149.533       c-1.101-5.528,2.397-9.984,7.808-9.954l180.412,1.008c5.273,0.03,10.424,4.472,11.51,9.924l29.361,147.46       C1705.37,2201.232,1701.988,2205.678,1696.728,2205.71z M1522.522,2186.772l160.734-0.771l-25.464-127.892l-161.022-0.676       L1522.522,2186.772z"/>
					<path style="fill:#D8DEE8;" d="M1924.182,2204.303l-174.232,1.078c-5.225,0.032-10.341-4.35-11.424-9.788l-29.29-147.104       c-1.083-5.439,2.287-9.823,7.525-9.794l174.641,0.976c5.105,0.028,10.107,4.4,11.175,9.764l28.89,145.099       C1932.536,2199.897,1929.275,2204.271,1924.182,2204.303z M1755.486,2185.656l155.592-0.746l-25.056-125.84l-155.871-0.655       L1755.486,2185.656z"/>
					<path style="fill:#D8DEE8;" d="M2144.459,2202.939l-168.744,1.044c-5.06,0.031-10.027-4.281-11.093-9.632l-28.822-144.754       c-1.066-5.351,2.184-9.666,7.256-9.638l169.14,0.945c4.945,0.027,9.804,4.33,10.855,9.609l28.435,142.811       C2152.538,2198.604,2149.393,2202.909,2144.459,2202.939z M1981.013,2184.574l150.692-0.723l-24.66-123.853l-150.962-0.635       L1981.013,2184.574z"/>
					<path style="fill:#D8DEE8;" d="M2357.894,2201.618l-163.512,1.012c-4.901,0.03-9.727-4.215-10.776-9.482l-28.368-142.477       c-1.049-5.267,2.086-9.515,7-9.487l163.896,0.916c4.793,0.027,9.515,4.262,10.55,9.459l27.994,140.594       C2365.711,2197.352,2362.676,2201.589,2357.894,2201.618z M2199.455,2183.526l146.02-0.7l-24.277-121.929l-146.282-0.615       L2199.455,2183.526z"/>
					<path style="fill:#D8DEE8;" d="M2564.801,2200.338l-158.52,0.981c-4.751,0.03-9.441-4.15-10.474-9.336l-27.929-140.271       c-1.032-5.186,1.993-9.368,6.756-9.341l158.892,0.888c4.647,0.026,9.239,4.196,10.258,9.314l27.566,138.446       C2572.367,2196.137,2569.437,2200.309,2564.801,2200.338z M2411.14,2182.511l141.562-0.679l-23.906-120.063l-141.815-0.596       L2411.14,2182.511z"/>
					<path style="fill:#D8DEE8;" d="M1259.421,2412.481l-191.868,3.864c-5.758,0.116-11.351-4.424-12.489-10.141l-30.79-154.639       c-1.139-5.717,2.62-10.39,8.392-10.438l192.32-1.595c5.618-0.046,11.079,4.483,12.201,10.118l30.349,152.424       C1268.657,2407.709,1265.026,2412.368,1259.421,2412.481z M1073.851,2395.462l171.342-3.211l-26.322-132.201l-171.65,1.664       L1073.851,2395.462z"/>
					<path style="fill:#D8DEE8;" d="M1501.65,2407.603l-185.525,3.736c-5.566,0.112-10.988-4.353-12.108-9.974l-30.273-152.043       c-1.119-5.621,2.499-10.215,8.079-10.261l185.962-1.543c5.434-0.045,10.73,4.411,11.833,9.952l29.847,149.901       C1510.568,2402.913,1507.071,2407.493,1501.65,2407.603z M1322.145,2390.81l165.677-3.104l-25.886-130.011l-165.975,1.609       L1322.145,2390.81z"/>
					<path style="fill:#D8DEE8;" d="M1735.987,2402.883l-179.492,3.615c-5.384,0.108-10.643-4.285-11.744-9.813l-29.774-149.533       c-1.101-5.528,2.385-10.045,7.781-10.09l179.914-1.493c5.259-0.043,10.398,4.34,11.484,9.792l29.361,147.461       C1744.602,2398.273,1741.233,2402.778,1735.987,2402.883z M1562.252,2386.311l160.29-3.004l-25.465-127.891l-160.578,1.556       L1562.252,2386.311z"/>
					
						<linearGradient id="SVGID_00000062873708142498417280000012096443087514433176_" gradientUnits="userSpaceOnUse" x1="2370.0493" y1="2317.749" x2="2566.584" y2="2317.749" gradientTransform="matrix(1 0 0.2218 1 -1122.9679 1.000000e-04)">
						<stop offset="0" style="stop-color:#FF9085"/>
						<stop offset="1" style="stop-color:#FB6FBB"/>
					</linearGradient>
					<path style="fill:url(#SVGID_00000062873708142498417280000012096443087514433176_);" d="M1962.812,2398.315l-173.75,3.499       c-5.21,0.105-10.315-4.218-11.398-9.656l-29.29-147.105c-1.083-5.438,2.276-9.882,7.499-9.925l174.159-1.445       c5.091-0.042,10.081,4.272,11.149,9.636l28.891,145.099C1971.14,2393.782,1967.891,2398.213,1962.812,2398.315z        M1794.571,2381.957l155.162-2.907l-25.056-125.84l-155.441,1.507L1794.571,2381.957z"/>
					
						<linearGradient id="SVGID_00000164483528820183167490000000588861323747117239_" gradientUnits="userSpaceOnUse" x1="2596.4917" y1="2314.5686" x2="2786.8884" y2="2314.5686" gradientTransform="matrix(1 0 0.2218 1 -1122.9679 1.000000e-04)">
						<stop offset="0" style="stop-color:#FF9085"/>
						<stop offset="1" style="stop-color:#FB6FBB"/>
					</linearGradient>
					<path style="fill:url(#SVGID_00000164483528820183167490000000588861323747117239_);" d="M2182.479,2393.891l-168.277,3.389       c-5.045,0.102-10.002-4.154-11.067-9.505l-28.822-144.754c-1.065-5.351,2.173-9.723,7.23-9.765l168.674-1.399       c4.932-0.041,9.779,4.206,10.831,9.485l28.435,142.811C2190.534,2389.432,2187.4,2393.792,2182.479,2393.891z        M2019.475,2377.743l150.275-2.816l-24.66-123.854l-150.546,1.459L2019.475,2377.743z"/>
					
						<linearGradient id="SVGID_00000094615121764023920060000017176093270245334951_" gradientUnits="userSpaceOnUse" x1="2815.8105" y1="2311.4878" x2="3000.3542" y2="2311.4878" gradientTransform="matrix(1 0 0.2218 1 -1122.9679 1.000000e-04)">
						<stop offset="0" style="stop-color:#FF9085"/>
						<stop offset="1" style="stop-color:#FB6FBB"/>
					</linearGradient>
					<path style="fill:url(#SVGID_00000094615121764023920060000017176093270245334951_);" d="M2395.324,2389.604l-163.06,3.284       c-4.888,0.098-9.703-4.091-10.752-9.359l-28.369-142.477c-1.049-5.268,2.075-9.57,6.975-9.611l163.444-1.356       c4.78-0.04,9.491,4.141,10.526,9.339l27.993,140.595C2403.117,2385.217,2400.093,2389.508,2395.324,2389.604z        M2237.313,2373.661l145.616-2.729l-24.277-121.928l-145.878,1.414L2237.313,2373.661z"/>
					
						<linearGradient id="SVGID_00000033331106880225987290000006439247516870456198_" gradientUnits="userSpaceOnUse" x1="3028.3367" y1="2308.502" x2="3207.2947" y2="2308.502" gradientTransform="matrix(1 0 0.2218 1 -1122.9679 1.000000e-04)">
						<stop offset="0" style="stop-color:#FF9085"/>
						<stop offset="1" style="stop-color:#FB6FBB"/>
					</linearGradient>
					<path style="fill:url(#SVGID_00000033331106880225987290000006439247516870456198_);" d="M2601.658,2385.449l-158.081,3.184       c-4.738,0.096-9.418-4.031-10.451-9.216l-27.929-140.271c-1.032-5.186,1.982-9.421,6.732-9.46l158.453-1.315       c4.635-0.039,9.216,4.079,10.235,9.198l27.566,138.446C2609.202,2381.131,2606.282,2385.356,2601.658,2385.449z        M2448.412,2369.705l141.17-2.645l-23.906-120.063l-141.424,1.371L2448.412,2369.705z"/>
					<path style="fill:#D8DEE8;" d="M1300.002,2616.294l-191.336,6.538c-5.742,0.196-11.322-4.279-12.46-9.996l-30.79-154.638       c-1.138-5.717,2.608-10.455,8.363-10.583l191.787-4.269c5.603-0.125,11.051,4.342,12.173,9.977l30.349,152.423       C1309.21,2611.381,1305.592,2616.103,1300.002,2616.294z M1114.935,2601.804l170.867-5.597l-26.323-132.201l-171.175,4.05       L1114.935,2601.804z"/>
					<path style="fill:#D8DEE8;" d="M1541.559,2608.041l-185.01,6.322c-5.551,0.189-10.96-4.213-12.08-9.834l-30.273-152.043       c-1.119-5.621,2.487-10.278,8.051-10.402l185.447-4.128c5.419-0.121,10.703,4.274,11.806,9.816l29.847,149.901       C1550.45,2603.214,1546.965,2607.856,1541.559,2608.041z M1362.541,2593.693l165.218-5.412l-25.886-130.01l-165.516,3.917       L1362.541,2593.693z"/>
					<path style="fill:#D8DEE8;" d="M1775.246,2600.056l-178.994,6.116c-5.369,0.184-10.616-4.149-11.717-9.677l-29.774-149.533       c-1.1-5.528,2.373-10.106,7.754-10.226l179.416-3.994c5.244-0.117,10.372,4.208,11.457,9.659l29.361,147.461       C1783.835,2595.313,1780.477,2599.878,1775.246,2600.056z M1601.982,2585.849l159.845-5.236l-25.464-127.891l-160.133,3.789       L1601.982,2585.849z"/>
					<path style="fill:#D8DEE8;" d="M2001.442,2592.327l-173.267,5.92c-5.196,0.177-10.289-4.087-11.372-9.525l-29.29-147.105       c-1.083-5.438,2.264-9.941,7.473-10.057l173.676-3.866c5.077-0.113,10.056,4.144,11.124,9.508l28.89,145.099       C2009.745,2587.666,2006.507,2592.154,2001.442,2592.327z M1833.657,2578.26l154.732-5.069l-25.056-125.84l-155.01,3.668       L1833.657,2578.26z"/>
					<path style="fill:#D8DEE8;" d="M2220.5,2584.843l-167.81,5.734c-5.032,0.172-9.977-4.027-11.042-9.378l-28.822-144.754       c-1.066-5.352,2.162-9.781,7.205-9.893l168.207-3.744c4.918-0.109,9.754,4.081,10.806,9.361l28.435,142.811       C2228.529,2580.26,2225.407,2584.675,2220.5,2584.843z M2057.937,2570.912l149.859-4.909l-24.66-123.853l-150.129,3.552       L2057.937,2570.912z"/>
					<path style="fill:#D8DEE8;" d="M2432.754,2577.591l-162.607,5.556c-4.875,0.167-9.679-3.968-10.727-9.235l-28.369-142.477       c-1.049-5.267,2.064-9.625,6.95-9.734l162.991-3.628c4.767-0.106,9.467,4.021,10.502,9.219l27.993,140.595       C2440.523,2573.083,2437.509,2577.428,2432.754,2577.591z M2275.17,2563.796l145.212-4.757l-24.277-121.928l-145.474,3.442       L2275.17,2563.796z"/>
					<path style="fill:#D8DEE8;" d="M2638.515,2570.56l-157.642,5.386c-4.725,0.161-9.395-3.912-10.427-9.097l-27.929-140.27       c-1.032-5.186,1.972-9.475,6.708-9.581l158.015-3.517c4.622-0.103,9.192,3.963,10.211,9.081l27.566,138.446       C2646.036,2566.126,2643.126,2570.403,2638.515,2570.56z M2485.685,2556.9l140.779-4.612l-23.906-120.063l-141.032,3.337       L2485.685,2556.9z"/>
					<path style="fill:#D8DEE8;" d="M1340.583,2820.107l-190.803,9.211c-5.726,0.277-11.293-4.133-12.432-9.85l-30.79-154.639       c-1.138-5.717,2.594-10.52,8.334-10.729l191.255-6.942c5.587-0.203,11.023,4.201,12.145,9.835l30.349,152.424       C1349.764,2815.052,1346.158,2819.838,1340.583,2820.107z M1156.02,2808.146l170.392-7.984l-26.323-132.201l-170.7,6.437       L1156.02,2808.146z"/>
					<path style="fill:#D8DEE8;" d="M1581.468,2808.479l-184.495,8.906c-5.535,0.267-10.933-4.073-12.052-9.693l-30.273-152.043       c-1.119-5.621,2.474-10.341,8.023-10.542l184.932-6.713c5.404-0.196,10.676,4.137,11.779,9.679l29.847,149.901       C1590.332,2803.516,1586.859,2808.219,1581.468,2808.479z M1402.937,2796.575l164.758-7.72l-25.886-130.01l-165.056,6.224       L1402.937,2796.575z"/>
					<path style="fill:#D8DEE8;" d="M1814.505,2797.229l-178.496,8.617c-5.354,0.259-10.59-4.013-11.69-9.541l-29.774-149.533       c-1.101-5.528,2.361-10.167,7.727-10.362l178.918-6.495c5.229-0.19,10.345,4.075,11.43,9.527l29.361,147.461       C1823.068,2792.354,1819.722,2796.977,1814.505,2797.229z M1641.712,2785.387l159.401-7.469l-25.464-127.891l-159.689,6.022       L1641.712,2785.387z"/>
					<path style="fill:#D8DEE8;" d="M2040.072,2786.34l-172.786,8.341c-5.182,0.25-10.262-3.955-11.345-9.394l-29.29-147.105       c-1.083-5.438,2.253-10,7.447-10.188l173.194-6.287c5.063-0.184,10.03,4.016,11.098,9.38l28.89,145.099       C2048.349,2781.55,2045.123,2786.096,2040.072,2786.34z M1872.743,2774.562l154.301-7.23l-25.056-125.84l-154.58,5.829       L1872.743,2774.562z"/>
					<path style="fill:#D8DEE8;" d="M2258.52,2775.794l-167.344,8.078c-5.018,0.242-9.951-3.899-11.017-9.25l-28.822-144.754       c-1.066-5.352,2.15-9.838,7.179-10.02l167.74-6.089c4.905-0.178,9.73,3.957,10.781,9.237l28.435,142.811       C2266.525,2771.087,2263.413,2775.558,2258.52,2775.794z M2096.399,2764.082l149.442-7.002l-24.66-123.854l-149.712,5.646       L2096.399,2764.082z"/>
					<path style="fill:#D8DEE8;" d="M2470.184,2765.576l-162.155,7.828c-4.861,0.235-9.654-3.845-10.703-9.112l-28.369-142.478       c-1.049-5.267,2.053-9.68,6.926-9.857l162.539-5.9c4.753-0.173,9.443,3.901,10.478,9.099l27.994,140.594       C2477.929,2760.949,2474.926,2765.348,2470.184,2765.576z M2313.028,2753.931l144.808-6.785l-24.277-121.929l-145.07,5.471       L2313.028,2753.931z"/>
					<path style="fill:#D8DEE8;" d="M2675.373,2755.671l-157.204,7.589c-4.712,0.228-9.371-3.792-10.403-8.977l-27.929-140.271       c-1.032-5.185,1.962-9.528,6.684-9.7l157.576-5.72c4.609-0.167,9.169,3.846,10.188,8.964l27.566,138.446       C2682.87,2751.12,2679.971,2755.449,2675.373,2755.671z M2522.957,2744.094l140.387-6.578l-23.906-120.063l-140.641,5.303       L2522.957,2744.094z"/>
					<path style="fill:#D8DEE8;" d="M1381.165,3023.921l-190.271,11.885c-5.71,0.356-11.264-3.988-12.402-9.705l-30.79-154.639       c-1.138-5.717,2.582-10.585,8.305-10.874l190.723-9.616c5.572-0.281,10.995,4.059,12.117,9.694l30.349,152.424       C1390.317,3018.725,1386.724,3023.573,1381.165,3023.921z M1197.104,3014.487l169.916-10.371l-26.323-132.202l-170.224,8.824       L1197.104,3014.487z"/>
					<path style="fill:#D8DEE8;" d="M1621.377,3008.917l-183.981,11.491c-5.52,0.344-10.905-3.932-12.024-9.553l-30.273-152.043       c-1.119-5.621,2.462-10.404,7.995-10.683l184.417-9.298c5.389-0.272,10.648,4,11.752,9.542l29.847,149.901       C1630.214,3003.817,1626.753,3008.581,1621.377,3008.917z M1443.333,2999.458l164.299-10.028l-25.886-130.011l-164.597,8.532       L1443.333,2999.458z"/>
					<path style="fill:#D8DEE8;" d="M1853.764,2994.402l-177.998,11.118c-5.339,0.333-10.562-3.877-11.663-9.406l-29.773-149.533       c-1.101-5.528,2.348-10.228,7.7-10.498l178.421-8.995c5.215-0.263,10.319,3.943,11.404,9.395l29.361,147.461       C1862.301,2989.395,1858.966,2994.077,1853.764,2994.402z M1681.442,2984.925l158.956-9.702l-25.464-127.892l-159.245,8.255       L1681.442,2984.925z"/>
					<path style="fill:#D8DEE8;" d="M2078.701,2980.352l-172.303,10.762c-5.167,0.323-10.237-3.824-11.319-9.262l-29.29-147.105       c-1.083-5.438,2.241-10.058,7.42-10.32l172.712-8.708c5.049-0.254,10.005,3.887,11.073,9.252l28.891,145.098       C2086.953,2975.435,2083.738,2980.038,2078.701,2980.352z M1911.828,2970.864l153.871-9.392l-25.056-125.84l-154.15,7.99       L1911.828,2970.864z"/>
					
						<linearGradient id="SVGID_00000170254449782621714370000011348464153429464249_" gradientUnits="userSpaceOnUse" x1="1739.8445" y1="1828.6799" x2="1807.3588" y2="2766.3762" gradientTransform="matrix(1 0 0.2218 1 -1122.9679 1.000000e-04)">
						<stop offset="0.0036" style="stop-color:#E38DDD"/>
						<stop offset="1" style="stop-color:#9571F6"/>
					</linearGradient>
					<polygon style="fill:url(#SVGID_00000170254449782621714370000011348464153429464249_);" points="1171.534,2010.667        976.025,2009.242 967.686,1967.361 1163.304,1969.334      "/>
					
						<linearGradient id="SVGID_00000106129632102917130980000001804938464514818744_" gradientUnits="userSpaceOnUse" x1="1988.3978" y1="1816.4175" x2="2054.4646" y2="2734.0105" gradientTransform="matrix(1 0 0.2218 1 -1122.9679 1.000000e-04)">
						<stop offset="0.0036" style="stop-color:#E38DDD"/>
						<stop offset="1" style="stop-color:#9571F6"/>
					</linearGradient>
					<polygon style="fill:url(#SVGID_00000106129632102917130980000001804938464514818744_);" points="1418.267,2012.465        1229.301,2011.088 1221.103,1969.918 1410.175,1971.825      "/>
					
						<linearGradient id="SVGID_00000062892413736112312780000004493409605665445299_" gradientUnits="userSpaceOnUse" x1="2228.7097" y1="1804.6963" x2="2293.3875" y2="2702.9939" gradientTransform="matrix(1 0 0.2218 1 -1122.9679 1.000000e-04)">
						<stop offset="0.0036" style="stop-color:#E38DDD"/>
						<stop offset="1" style="stop-color:#9571F6"/>
					</linearGradient>
					<polygon style="fill:url(#SVGID_00000062892413736112312780000004493409605665445299_);" points="1656.861,2014.203        1474.116,2012.872 1466.056,1972.389 1648.903,1974.234      "/>
					
						<linearGradient id="SVGID_00000031908670568959091290000010351970716410473607_" gradientUnits="userSpaceOnUse" x1="2461.1838" y1="1793.4834" x2="2524.5269" y2="2673.2463" gradientTransform="matrix(1 0 0.2218 1 -1122.9679 1.000000e-04)">
						<stop offset="0.0036" style="stop-color:#E38DDD"/>
						<stop offset="1" style="stop-color:#9571F6"/>
					</linearGradient>
					<polygon style="fill:url(#SVGID_00000031908670568959091290000010351970716410473607_);" points="1887.715,2015.885        1710.888,2014.597 1702.96,1974.779 1879.886,1976.564      "/>
					
						<linearGradient id="SVGID_00000084525669844975944630000017029029633525472147_" gradientUnits="userSpaceOnUse" x1="2686.1975" y1="1782.7498" x2="2748.2576" y2="2644.6919" gradientTransform="matrix(1 0 0.2218 1 -1122.9679 1.000000e-04)">
						<stop offset="0.0036" style="stop-color:#E38DDD"/>
						<stop offset="1" style="stop-color:#9571F6"/>
					</linearGradient>
					<polygon style="fill:url(#SVGID_00000084525669844975944630000017029029633525472147_);" points="2111.198,2017.514        1940.006,2016.266 1932.206,1977.092 2103.494,1978.821      "/>
					
						<linearGradient id="SVGID_00000122721158776074817270000005675148141923951267_" gradientUnits="userSpaceOnUse" x1="2904.1038" y1="1772.4662" x2="2964.9294" y2="2617.2651" gradientTransform="matrix(1 0 0.2218 1 -1122.9679 1.000000e-04)">
						<stop offset="0.0036" style="stop-color:#E38DDD"/>
						<stop offset="1" style="stop-color:#9571F6"/>
					</linearGradient>
					<polygon style="fill:url(#SVGID_00000122721158776074817270000005675148141923951267_);" points="2327.658,2019.091        2161.835,2017.883 2154.16,1979.332 2320.074,1981.006      "/>
					
						<linearGradient id="SVGID_00000103968228157724765190000013511026348442552708_" gradientUnits="userSpaceOnUse" x1="3115.2344" y1="1762.6029" x2="3174.8728" y2="2590.9128" gradientTransform="matrix(1 0 0.2218 1 -1122.9679 1.000000e-04)">
						<stop offset="0.0036" style="stop-color:#E38DDD"/>
						<stop offset="1" style="stop-color:#9571F6"/>
					</linearGradient>
					<polygon style="fill:url(#SVGID_00000103968228157724765190000013511026348442552708_);" points="2537.42,2020.62        2376.719,2019.448 2369.164,1981.501 2529.954,1983.123      "/>
				</g>
				<polygon style="fill:#D8DEE8;" points="2519.808,1932.166 956.353,1910.443 940.591,1831.283 2505.697,1861.296     "/>
				<g style="opacity:0.3;">
					<path style="fill:#D8DEE8;" d="M2102.642,2473.773c-350.113-190.232-681.895-42.354-920.782-286.361       c-122.508-125.134-161.786-294.039-168.872-443.402l-153.99-3.871c-27.376-0.688-45.31,20.505-39.967,47.341l257.26,1292.049       c5.343,26.836,31.532,47.098,58.406,45.264l1446.764-98.748C2422.543,2703.108,2246.949,2552.181,2102.642,2473.773z"/>
				</g>
			</g>
		</g>
		<g>
			
				<linearGradient id="SVGID_00000067233730502525976480000005456424399269024438_" gradientUnits="userSpaceOnUse" x1="7222.7344" y1="976.685" x2="6849.8403" y2="1416.4567" gradientTransform="matrix(-1 0 0 1 7989.9844 0)">
				<stop offset="0.0036" style="stop-color:#E38DDD"/>
				<stop offset="1" style="stop-color:#9571F6"/>
			</linearGradient>
			<path style="fill:url(#SVGID_00000067233730502525976480000005456424399269024438_);" d="M858.517,921.109     c2.938,0,5.851,0.222,8.741,0.619l211.26-2.319v549.302l-203.999-2.795c-5.245,1.331-10.585,2.031-16.003,2.031     c-72.405,0-131.101-122.414-131.101-273.419C727.417,1043.523,786.112,921.109,858.517,921.109z"/>
			
				<linearGradient id="SVGID_00000051347325455160553140000009048287687792431503_" gradientUnits="userSpaceOnUse" x1="-6889.7002" y1="363.7758" x2="-6463.3677" y2="2721.9189" gradientTransform="matrix(1 0 0 1 8645.7275 0)">
				<stop offset="0" style="stop-color:#AA80F9"/>
				<stop offset="0.9964" style="stop-color:#6165D7"/>
			</linearGradient>
			<path style="fill:url(#SVGID_00000051347325455160553140000009048287687792431503_);" d="M1078.519,919.409     c-80.021,182.91-80.021,365.168,0,549.302l1571.474,505.248l16.229-1541.72L1078.519,919.409z"/>
			
				<linearGradient id="SVGID_00000176021739949751164580000004700876486400366002_" gradientUnits="userSpaceOnUse" x1="-7035.5752" y1="368.0884" x2="-6603.9346" y2="2755.5918" gradientTransform="matrix(1 0 0 1 8645.7275 0)">
				<stop offset="0" style="stop-color:#AA80F9"/>
				<stop offset="0.9964" style="stop-color:#6165D7"/>
			</linearGradient>
			<path style="opacity:0.3;fill:url(#SVGID_00000176021739949751164580000004700876486400366002_);" d="M2225.774,1520.783     c-149.415-56.607-195.842-273.374-369.313-280.67c-136.114-5.724-177.12,126.437-310.487,112.182     c-136.521-14.592-159.447-161.782-312.335-213.663c-69.514-23.588-142.235-19.229-212.818,0.713     c-9.481,109.235,9.665,218.841,57.698,329.366l1571.474,505.248l-92.966-523.463     C2402.08,1540.88,2298.21,1548.225,2225.774,1520.783z"/>
			
				<linearGradient id="SVGID_00000182518442574095660940000006124807536705678988_" gradientUnits="userSpaceOnUse" x1="5688.4209" y1="696.2326" x2="4839.1714" y2="1697.7927" gradientTransform="matrix(-1 0 0 1 7989.9844 0)">
				<stop offset="0.0036" style="stop-color:#E38DDD"/>
				<stop offset="1" style="stop-color:#9571F6"/>
			</linearGradient>
			
				<ellipse style="fill:url(#SVGID_00000182518442574095660940000006124807536705678988_);" cx="2726.188" cy="1197.013" rx="382.262" ry="797.231"/>
			
				<linearGradient id="SVGID_00000000943897762195481490000017012646392120034989_" gradientUnits="userSpaceOnUse" x1="5747.8989" y1="1184.6794" x2="4929.2095" y2="1205.537" gradientTransform="matrix(-1 0 0 1 7989.9844 0)">
				<stop offset="0" style="stop-color:#311944"/>
				<stop offset="1" style="stop-color:#893976"/>
			</linearGradient>
			<path style="fill:url(#SVGID_00000000943897762195481490000017012646392120034989_);" d="M2726.189,1967.195     c44.82,0,88.862-18.802,130.9-55.886c42.784-37.742,81.48-92.334,115.01-162.263c70.485-147.002,109.303-343.05,109.303-552.033     c0-208.982-38.819-405.031-109.303-552.032c-33.53-69.929-72.226-124.521-115.01-162.263     c-42.038-37.084-86.08-55.886-130.9-55.886s-88.862,18.803-130.9,55.886c-42.784,37.743-81.48,92.335-115.01,162.263     c-29.471,61.465-53.407,131.504-71.283,207.48c-24.876,105.729,47.026,216.101,47.026,337.702     c0,129.304-70.186,260.506-42.158,371.353c17.271,68.306,39.541,131.483,66.415,187.531     c33.53,69.929,72.226,124.521,115.01,162.263C2637.327,1948.393,2681.369,1967.195,2726.189,1967.195z"/>
			<g>
				<defs>
					<path id="SVGID_00000146471271750581976640000006289059751182317971_" d="M2726.189,1967.195       c44.82,0,88.862-18.802,130.9-55.886c42.784-37.742,81.48-92.334,115.01-162.263       c70.485-147.002,109.303-343.05,109.303-552.033c0-208.982-38.819-405.031-109.303-552.032       c-33.53-69.929-72.226-124.521-115.01-162.263c-42.038-37.084-86.08-55.886-130.9-55.886s-88.862,18.803-130.9,55.886       c-42.784,37.743-81.48,92.335-115.01,162.263c-70.484,147.001-109.303,343.05-109.303,552.032       c0,208.983,38.818,405.032,109.303,552.033c33.53,69.929,72.226,124.521,115.01,162.263       C2637.327,1948.393,2681.369,1967.195,2726.189,1967.195z"/>
				</defs>
				<clipPath id="SVGID_00000140693643174743646800000011323410750671889581_">
					<use xlink:href="#SVGID_00000146471271750581976640000006289059751182317971_" style="overflow:visible;"/>
				</clipPath>
				
					<linearGradient id="SVGID_00000164496341469055490000000016000877810977515173_" gradientUnits="userSpaceOnUse" x1="-6318.9766" y1="438.2768" x2="-6040.6167" y2="1977.9489" gradientTransform="matrix(1 0 0 1 8645.7275 0)">
					<stop offset="0" style="stop-color:#FFC444"/>
					<stop offset="0.9964" style="stop-color:#F36F56"/>
				</linearGradient>
				
					<path style="clip-path:url(#SVGID_00000140693643174743646800000011323410750671889581_);fill:url(#SVGID_00000164496341469055490000000016000877810977515173_);" d="      M2757.649,1207.472c0,201.981-133.744,362.356-296.398,358.266c-160.138-4.027-288.149-166.428-288.149-362.788      c0-196.36,128.012-356.78,288.149-358.33C2623.905,843.046,2757.649,1005.491,2757.649,1207.472z"/>
				
					<linearGradient id="SVGID_00000157288847837164509510000001915553727268190892_" gradientUnits="userSpaceOnUse" x1="-6158.4644" y1="636.6232" x2="-5953.0771" y2="1772.6656" gradientTransform="matrix(1 0 0 1 8645.7275 0)">
					<stop offset="0" style="stop-color:#FFC444"/>
					<stop offset="0.9964" style="stop-color:#F36F56"/>
				</linearGradient>
				
					<path style="opacity:0.3;clip-path:url(#SVGID_00000140693643174743646800000011323410750671889581_);fill:url(#SVGID_00000157288847837164509510000001915553727268190892_);" d="      M2731.951,1204.186c0,149.986-65.167,269.076-144.418,266.039c-78.026-2.991-140.399-123.585-140.399-269.397      c0-145.811,62.373-264.935,140.399-266.086C2666.785,933.573,2731.951,1054.2,2731.951,1204.186z"/>
			</g>
		</g>
		<g>
			<g>
				<g>
					
						<linearGradient id="SVGID_00000120529495649669904950000016341811362050864518_" gradientUnits="userSpaceOnUse" x1="1025.1573" y1="2119.8848" x2="2123.8494" y2="4466.9297" gradientTransform="matrix(1 0 0 1 -73.8975 0)">
						<stop offset="0" style="stop-color:#FFC444"/>
						<stop offset="0.9964" style="stop-color:#F36F56"/>
					</linearGradient>
					<path style="fill:url(#SVGID_00000120529495649669904950000016341811362050864518_);" d="M1121.708,2024.724       c0,0-185.112-320.53-435.454,224.56c-194.935,424.451-68.945,896.656,382.033,1026.227       c450.978,129.57,1155.348-132.112,934.257-316.531C1533.557,2567.786,1177.614,2221.042,1121.708,2024.724z"/>
					<g style="opacity:0.35;">
						
							<linearGradient id="SVGID_00000083049394584506621150000015843542017117935036_" gradientUnits="userSpaceOnUse" x1="1151.2886" y1="2060.8406" x2="2249.978" y2="4407.8799" gradientTransform="matrix(1 0 0 1 -73.8975 0)">
							<stop offset="0" style="stop-color:#FFC444"/>
							<stop offset="0.9964" style="stop-color:#F36F56"/>
						</linearGradient>
						<path style="fill:url(#SVGID_00000083049394584506621150000015843542017117935036_);" d="M889.427,2312.768        c-13.178,38.82-16.161,149.419-10.601,276.61c4.96,113.461-5.34,172.78,175.173,255.305        c61.873,28.287,104.664,118.048,199.399,171.446c42.951,24.208,204.75,111.799,413.707,76.405        c138.258-23.418,241.2-91.231,310.522-154.422c-456.596-382.622-801.01-720.574-855.919-913.389        c0,0-67.637-117.023-176.409-89.321C971.686,1964.822,980.646,2044.041,889.427,2312.768z"/>
					</g>
					<g style="opacity:0.13;">
						
							<linearGradient id="SVGID_00000112597318364102287980000017533878152224499845_" gradientUnits="userSpaceOnUse" x1="1025.1569" y1="2119.8853" x2="2123.8513" y2="4466.9355" gradientTransform="matrix(1 0 0 1 -73.8975 0)">
							<stop offset="0" style="stop-color:#FFC444"/>
							<stop offset="0.9964" style="stop-color:#F36F56"/>
						</linearGradient>
						<path style="fill:url(#SVGID_00000112597318364102287980000017533878152224499845_);" d="M1790.099,3146.577        c-213.281,117.771-569.485,189.654-834.868-7.454c-245.72-182.503-267.613-488.149-275.805-581.426        c-14.316-163.017,17.532-304.966,63.454-419.464c-18.454,32.255-37.345,69.067-56.626,111.051        c-194.936,424.451-68.945,896.656,382.033,1026.226c443.904,127.538,1133.311-123.998,943.98-307.796        C1958.458,3028.41,1885.858,3093.701,1790.099,3146.577z"/>
					</g>
				</g>
				
					<linearGradient id="SVGID_00000053547209123351336470000003861451454765920702_" gradientUnits="userSpaceOnUse" x1="762.2245" y1="2591.7344" x2="1757.5294" y2="2591.7344">
					<stop offset="0" style="stop-color:#FFC444"/>
					<stop offset="0.9964" style="stop-color:#F36F56"/>
				</linearGradient>
				<path style="opacity:0.3;fill:url(#SVGID_00000053547209123351336470000003861451454765920702_);" d="M1454.1,3181.552      c-6.32,0-12.662-0.071-19.082-0.213c-164.719-3.677-395.977-58.391-562.256-298.141      c-140.441-202.496-121.645-431.028-81.147-587.084c43.829-168.892,121.852-291.63,122.635-292.85      c0.877-1.366,2.691-1.755,4.05-0.884c1.363,0.875,1.758,2.687,0.884,4.05c-0.777,1.214-78.362,123.295-121.936,291.319      c-40.15,154.825-58.805,381.489,80.331,582.108c164.874,237.723,394.212,291.973,557.568,295.618      c177.257,3.947,317.005-49.008,318.397-49.542c1.502-0.586,3.205,0.172,3.788,1.684s-0.171,3.208-1.684,3.788      C1754.299,3131.925,1623.263,3181.546,1454.1,3181.552z"/>
			</g>
			<g>
				<g>
					<g>
						
							<linearGradient id="SVGID_00000012434989581894121710000006040543533095325332_" gradientUnits="userSpaceOnUse" x1="-1041.2206" y1="3001.1257" x2="-813.0278" y2="3001.1257" gradientTransform="matrix(0.6567 -0.7542 0.7542 0.6567 750.7986 388.1635)">
							<stop offset="0" style="stop-color:#40447E"/>
							<stop offset="0.9964" style="stop-color:#3C3B6B"/>
						</linearGradient>
						<path style="fill:url(#SVGID_00000012434989581894121710000006040543533095325332_);" d="M2338.649,3151.236        c-11.756-12.654-32.818-67.126,5.597-78.318c38.628-11.254,60.098-25.506,113.29-68.145        c53.191-42.64,66.854-6.025-8.276,63.227C2374.132,3137.25,2355.364,3169.229,2338.649,3151.236z"/>
						
							<linearGradient id="SVGID_00000152974345295054177430000002236737692670897067_" gradientUnits="userSpaceOnUse" x1="2305.1709" y1="2489.3208" x2="4141.5771" y2="4395.0244" gradientTransform="matrix(0.9952 0.098 -0.098 0.9952 -118.3824 -114.5396)">
							<stop offset="0" style="stop-color:#FFC444"/>
							<stop offset="0.9964" style="stop-color:#F36F56"/>
						</linearGradient>
						<path style="fill:url(#SVGID_00000152974345295054177430000002236737692670897067_);" d="M2288.316,3071.691l31.641,27.627        c6.609,5.771,16.226,6.513,23.643,1.823c3.456-2.185,5.669-5.882,5.963-9.96c0.294-4.078-1.366-8.054-4.473-10.713        l-46.251-39.575L2288.316,3071.691z"/>
					</g>
					<g>
						
							<linearGradient id="SVGID_00000030447277042631079820000018400957575750239902_" gradientUnits="userSpaceOnUse" x1="1156.118" y1="2705.9836" x2="2284.417" y2="3305.2771" gradientTransform="matrix(0.9981 -0.0611 0.0611 0.9981 -36.4323 49.9065)">
							<stop offset="0" style="stop-color:#311944"/>
							<stop offset="1" style="stop-color:#6B3976"/>
						</linearGradient>
						<path style="fill:url(#SVGID_00000030447277042631079820000018400957575750239902_);" d="M1340.614,2805.66        c-55.908,48.976,60.792,209.59,247.219,157.531c225.915-63.086,513.23-34.736,706.908,122.956        c11.236-9.994,39.065-25.679,26.338-38.548c-174.962-176.924-337.014-278.491-471.242-305.743        C1646.907,2700.654,1499.803,2666.208,1340.614,2805.66z"/>
						<g style="opacity:0.24;">
							<path style="fill:#552D63;" d="M1996.027,2872.93c32.773,19.064,39.759-19.669,56.667-45.15         c-72.574-44.561-140.725-73.31-202.855-85.924c-202.931-41.202-350.035-75.648-509.224,63.804         c-55.908,48.976,60.792,209.59,247.22,157.531c67.425-18.828,140.353-29.303,214.596-30.834         C1862.146,2894.805,1911.006,2808.638,1996.027,2872.93z"/>
						</g>
					</g>
				</g>
				<g>
					
						<linearGradient id="SVGID_00000178197409740835103440000008947573920839963535_" gradientUnits="userSpaceOnUse" x1="728.8831" y1="2974.4534" x2="1751.9905" y2="2784.3682" gradientTransform="matrix(0.9981 -0.0611 0.0611 0.9981 -36.4323 49.9065)">
						<stop offset="0" style="stop-color:#311944"/>
						<stop offset="1" style="stop-color:#893976"/>
					</linearGradient>
					<path style="fill:url(#SVGID_00000178197409740835103440000008947573920839963535_);" d="M1307.616,2972.97l-11.475,4.385       c0,0-74.231-70.084-87.461-87.944c-16.142-21.792,165.63-77.357,224.656-150.053c62.025-76.387,13.022,90.688,13.022,90.688       L1307.616,2972.97z"/>
				</g>
				<g>
					
						<linearGradient id="SVGID_00000015351709302101701710000010007293621160326272_" gradientUnits="userSpaceOnUse" x1="1570.6432" y1="3156.6477" x2="1307.2543" y2="2532.9639" gradientTransform="matrix(0.9981 -0.0611 0.0611 0.9981 -36.4323 49.9065)">
						<stop offset="0" style="stop-color:#AA80F9"/>
						<stop offset="0.9964" style="stop-color:#6165D7"/>
					</linearGradient>
					<path style="fill:url(#SVGID_00000015351709302101701710000010007293621160326272_);" d="M1240.298,2285.356       c0,0,65.899,9.034,138.16,137.168c54.329,96.339,172.287,176.152,172.287,176.152l12.111,75.807l-97.9,17.198l-35.019-23.06       l-95.531-203.257L1240.298,2285.356z"/>
					<g>
						
							<linearGradient id="SVGID_00000158717431523007169970000015382836724648368780_" gradientUnits="userSpaceOnUse" x1="1157.3015" y1="2868.0801" x2="1045.4852" y2="2430.7532" gradientTransform="matrix(0.9981 -0.0611 0.0611 0.9981 -36.4323 49.9065)">
							<stop offset="0" style="stop-color:#AA80F9"/>
							<stop offset="0.9964" style="stop-color:#6165D7"/>
						</linearGradient>
						<path style="fill:url(#SVGID_00000158717431523007169970000015382836724648368780_);" d="M1112.522,2277.185        c0,0-162.444,20.034-165.932,206.951c-3.219,172.494,59.016,239.324,211.726,383.156        c15.355,14.462,40.257,14.469,42.102,16.548c9.921,11.189,19.977,22.845,30.138,35.039        c136.669-131.156,290.773-175.573,290.773-175.573s-142.521-294.848-205.146-392.583        C1251.613,2249.955,1154.228,2267.162,1112.522,2277.185z"/>
						<g style="opacity:0.2;">
							
								<linearGradient id="SVGID_00000072273091439802999040000004940127044952174985_" gradientUnits="userSpaceOnUse" x1="1157.302" y1="2868.0806" x2="1045.4868" y2="2430.7581" gradientTransform="matrix(0.9981 -0.0611 0.0611 0.9981 -36.4323 49.9065)">
								<stop offset="0" style="stop-color:#AA80F9"/>
								<stop offset="0.9964" style="stop-color:#6165D7"/>
							</linearGradient>
							<path style="fill:url(#SVGID_00000072273091439802999040000004940127044952174985_);" d="M1382.222,2712.617         c-68.571,36.689-165.755,32.54-201.495-12.864c-26.914-34.194-31.276-46.936-64.041-100.631         c-26.358-43.198-39.191-50.123-96.782-86.491c-21.734-13.725-46.402-33.591-70.591-63.368         c-1.528,10.94-2.492,22.519-2.722,34.874c-3.219,172.495,59.016,239.325,211.725,383.156         c15.355,14.462,40.257,14.468,42.102,16.547c9.92,11.189,19.976,22.845,30.137,35.039         c136.669-131.156,290.773-175.573,290.773-175.573s-23.652-46.375-54.978-111.582         C1443.63,2669.792,1426.212,2689.08,1382.222,2712.617z"/>
						</g>
					</g>
					
						<linearGradient id="SVGID_00000121999879080249477510000007066587333101803175_" gradientUnits="userSpaceOnUse" x1="1125.5132" y1="2726.6179" x2="1662.5961" y2="2584.1658" gradientTransform="matrix(0.9981 -0.0611 0.0611 0.9981 -36.4323 49.9065)">
						<stop offset="0" style="stop-color:#AB316D"/>
						<stop offset="1" style="stop-color:#792D3D"/>
					</linearGradient>
					<path style="fill:url(#SVGID_00000121999879080249477510000007066587333101803175_);" d="M1270.218,2718.104       c0,0,30.785,1.421,52.65-7.386c21.865-8.807,20.065-10.829,45.231-14.025c24.463-3.106,72.646-17.626,45.367-42.438       c-30.364-27.617-82.411-19.874-97.367-1.54c-14.416,17.673-39.404,28.896-39.404,28.896L1270.218,2718.104z"/>
					
						<linearGradient id="SVGID_00000161610175149253635240000008866855487364750989_" gradientUnits="userSpaceOnUse" x1="1053.3595" y1="2923.5381" x2="935.7097" y2="2463.3955" gradientTransform="matrix(0.9981 -0.0611 0.0611 0.9981 -36.4323 49.9065)">
						<stop offset="0.2828" style="stop-color:#AA80F9"/>
						<stop offset="0.9964" style="stop-color:#6165D7"/>
					</linearGradient>
					<path style="fill:url(#SVGID_00000161610175149253635240000008866855487364750989_);" d="M995.632,2370.355       c0,0-90.219,10.504-37.575,301.027c27.304,150.679,162.271,129.467,325.247,67.208c11.033-23.08-3.165-71.998-3.165-71.998       s-202.481,83.487-207.72-38.31C1066.545,2491.726,1048.27,2355.929,995.632,2370.355z"/>
					<path style="fill:#9F73F8;" d="M1150.319,2338.992c-38.616,0-77.845-28.593-79.725-29.982c-0.651-0.479-0.79-1.399-0.307-2.05       c0.482-0.654,1.401-0.787,2.049-0.307c0.518,0.382,52.084,37.981,93.825,27.544c11.565-2.887,19.48-8.547,23.527-16.816       c7.709-15.74-1.026-35.926-1.114-36.126c-0.327-0.741,0.01-1.606,0.748-1.933c0.754-0.321,1.609,0.013,1.933,0.748       c0.388,0.877,9.366,21.646,1.068,38.6c-4.448,9.081-13.011,15.261-25.449,18.369       C1161.443,2338.396,1155.887,2338.992,1150.319,2338.992z"/>
					<path style="fill:#AE87F9;" d="M1207.729,2877.866c-0.402,0-0.8-0.165-1.088-0.486c-0.544-0.599-0.495-1.528,0.106-2.069       c1.454-1.311,146.874-131.483,278.156-163.582c0.803-0.214,1.58,0.294,1.774,1.075c0.191,0.787-0.292,1.58-1.075,1.774       c-130.564,31.921-275.443,161.604-276.893,162.909C1208.431,2877.74,1208.078,2877.866,1207.729,2877.866z"/>
				</g>
				<g>
					
						<linearGradient id="SVGID_00000065796665972726353020000015701941048795186877_" gradientUnits="userSpaceOnUse" x1="1277.5763" y1="2309.572" x2="1285.3695" y2="2101.9873" gradientTransform="matrix(0.9955 0.0944 -0.0944 0.9955 70.4199 -66.2741)">
						<stop offset="0" style="stop-color:#AB316D"/>
						<stop offset="1" style="stop-color:#792D3D"/>
					</linearGradient>
					<path style="fill:url(#SVGID_00000065796665972726353020000015701941048795186877_);" d="M1106.773,2189.416       c0,0,6.118,70.401,0.591,83.735c-5.528,13.333,11.936,31.511,46.449,38.514c34.513,7.002,7.188-70.206,7.188-70.206       L1106.773,2189.416z"/>
					
						<linearGradient id="SVGID_00000116923895159639647070000016210730980780684688_" gradientUnits="userSpaceOnUse" x1="171.9555" y1="2300.5791" x2="55.0219" y2="2003.589" gradientTransform="matrix(-0.9879 -0.155 -0.155 0.9879 1568.6239 118.478)">
						<stop offset="0" style="stop-color:#311944"/>
						<stop offset="1" style="stop-color:#6B3976"/>
					</linearGradient>
					<path style="fill:url(#SVGID_00000116923895159639647070000016210730980780684688_);" d="M1206.216,2194.648       c35.875-19.563,35.117-111.397,14.831-118.391c-11.649-4.016-17.384,24.289-55.816,40.672       c-29.929,12.759-51.222,6.151-62.138,23.761c-5.129,8.273-7.089,20.476-5.424,30.747c0.857,5.291,3.238,12.142,8.931,25.46       c5.051,11.817,4.64,11.366,6.222,14.824c3.802,8.309,11.503,22.562,27.295,40.497c2.126-5.055,5.116-11.254,9.339-17.82       c1.624-2.525,8.105-12.371,16.739-20.011C1181.916,2200.478,1195.929,2200.258,1206.216,2194.648z"/>
					
						<linearGradient id="SVGID_00000008850201328249273920000009080874928475336891_" gradientUnits="userSpaceOnUse" x1="1294.3152" y1="2141.0557" x2="1290.4867" y2="2449.521" gradientTransform="matrix(0.9955 0.0944 -0.0944 0.9955 70.4199 -66.2741)">
						<stop offset="0" style="stop-color:#AB316D"/>
						<stop offset="1" style="stop-color:#792D3D"/>
					</linearGradient>
					<path style="fill:url(#SVGID_00000008850201328249273920000009080874928475336891_);" d="M1119.07,2233.453       c0,0,13.433,32.87,50.143,36.35c32.868,3.115,49.367-69.063,31.08-87.885c-6.101-6.279-19.636-10.655-31.434-9.309       c-6.968,0.795-9.671,3.204-21.08,4.282c-10.524,0.995-13.199-0.584-16.66,1.492c-4.332,2.598-8.392,10.019-5.453,32.368       c-5.194-7.283-12.255-10.893-17.933-9.25c-0.906,0.262-3.385,1.423-5.012,3.523       C1096.836,2212.625,1102.731,2224.49,1119.07,2233.453z"/>
				</g>
				<g>
					<path style="fill:#26264F;" d="M1291.854,2757.146c-1.482,0.215-2.842,1.287-3.217,2.695c-0.055,0.207,0.521,7.572,0.502,7.792       c-0.145,1.711,0.907,3.298,2.542,3.829l138.13,44.867l258.137-101.094l-122.65,9.379L1291.854,2757.146z"/>
					<path style="fill:#444B8C;" d="M1291.792,2756.149c-1.7,0.247-3.006,1.633-3.152,3.345c-0.146,1.712,0.907,3.299,2.541,3.829       l138.133,44.868l258.141-101.094l-122.652,9.379L1291.792,2756.149z"/>
					
						<linearGradient id="SVGID_00000127730551792567896450000015950681868189841599_" gradientUnits="userSpaceOnUse" x1="1288.5325" y1="2689.4749" x2="1655.6201" y2="2689.4749" gradientTransform="matrix(0.9981 -0.0611 0.0611 0.9981 -36.4323 49.9065)">
						<stop offset="0" style="stop-color:#40447E"/>
						<stop offset="0.9964" style="stop-color:#3C3B6B"/>
					</linearGradient>
					<path style="fill:url(#SVGID_00000127730551792567896450000015950681868189841599_);" d="M1423.2,2806.178l20.577-269.28       c0.33-4.316,3.584-7.838,7.86-8.507l309.133-48.386c2.768-0.433,5.585,0.4,7.671,2.271c2.086,1.87,3.221,4.579,3.092,7.378       l-11.602,250.986c-0.2,4.331-3.358,7.954-7.622,8.743l-321.148,59.456L1423.2,2806.178z"/>
					<path style="fill:#26264F;" d="M1429.811,2816.33l21.222-275.215c0.333-4.313,3.586-7.832,7.86-8.5l309.138-48.387       c2.768-0.433,5.584,0.4,7.671,2.271c2.086,1.87,3.222,4.579,3.092,7.378l-11.604,251.023c-0.199,4.315-3.334,7.928-7.578,8.735       L1429.811,2816.33z"/>
					<path style="fill:#1F1F44;" d="M1429.811,2816.329l329.801-62.695c4.243-0.807,7.378-4.421,7.578-8.735l3.5-75.705       c-98.245,55.793-221.368,62.888-336.108,85.27L1429.811,2816.329z"/>
				</g>
				<g>
					
						<linearGradient id="SVGID_00000008828626510778806300000000357613510413938574_" gradientUnits="userSpaceOnUse" x1="674.633" y1="2968.4404" x2="856.9596" y2="2968.4404" gradientTransform="matrix(0.9263 -0.3767 0.3767 0.9263 246.4166 267.383)">
						<stop offset="0" style="stop-color:#40447E"/>
						<stop offset="0.9964" style="stop-color:#3C3B6B"/>
					</linearGradient>
					<path style="fill:url(#SVGID_00000008828626510778806300000000357613510413938574_);" d="M1988.401,2759.919       c-4.509-15.656-14.474-32.956,21.095-45.578c25.82-9.163,70.672-12.108,111.438-14.199       c57.126-2.929,70.265,31.248-13.221,52.992C2053.041,2767.373,1994.813,2782.181,1988.401,2759.919z"/>
					
						<linearGradient id="SVGID_00000096748806285354264980000005201383417657851057_" gradientUnits="userSpaceOnUse" x1="1826.7839" y1="2746.3159" x2="3663.2756" y2="4652.1084" gradientTransform="matrix(0.9981 -0.0611 0.0611 0.9981 -36.4323 49.9065)">
						<stop offset="0" style="stop-color:#FFC444"/>
						<stop offset="0.9964" style="stop-color:#F36F56"/>
					</linearGradient>
					<path style="fill:url(#SVGID_00000096748806285354264980000005201383417657851057_);" d="M2032.913,2735.951       c0.536,8.76-5.042,15.636-12.325,16.677c-16.903,2.414-13.731-6.288-14.268-15.048c-0.536-8.761-7.371-14.844,12.325-16.677       C2025.97,2720.221,2032.376,2727.19,2032.913,2735.951z"/>
					
						<linearGradient id="SVGID_00000079451147441077797130000014720695614153634472_" gradientUnits="userSpaceOnUse" x1="1064.7177" y1="2876.6545" x2="1905.8164" y2="2794.6567" gradientTransform="matrix(0.9981 -0.0611 0.0611 0.9981 -36.4323 49.9065)">
						<stop offset="0" style="stop-color:#311944"/>
						<stop offset="1" style="stop-color:#6B3976"/>
					</linearGradient>
					<path style="fill:url(#SVGID_00000079451147441077797130000014720695614153634472_);" d="M1859.46,2685.566l16.686-2.629       c0,0,32.504,3.039,122.079,27.738c19.176,3.182,45.319,59.147-10.868,61.344c-56.188,2.197-124.573,44.037-124.573,44.037       L1859.46,2685.566z"/>
					
						<linearGradient id="SVGID_00000147190132812609856230000012889483247759088539_" gradientUnits="userSpaceOnUse" x1="741.3259" y1="3041.4189" x2="1764.4386" y2="2851.3325" gradientTransform="matrix(0.9981 -0.0611 0.0611 0.9981 -36.4323 49.9065)">
						<stop offset="0" style="stop-color:#311944"/>
						<stop offset="1" style="stop-color:#893976"/>
					</linearGradient>
					<path style="fill:url(#SVGID_00000147190132812609856230000012889483247759088539_);" d="M1276.089,2945.962       c0,0,8.182,72.624,177.055,66.016c168.874-6.608,470.554-181.916,468.654-273.907c-1.9-91.991-114.161-55.242-230.395-2.07       c-98.107,44.88-249.651,70.873-280.709,75.692C1370.931,2817.863,1266.484,2911.077,1276.089,2945.962z"/>
					<g style="opacity:0.2;">
						
							<linearGradient id="SVGID_00000054953672504600677370000001351130041269325730_" gradientUnits="userSpaceOnUse" x1="1106.2556" y1="2908.0774" x2="1725.235" y2="2775.7842" gradientTransform="matrix(0.9981 -0.0611 0.0611 0.9981 -36.4323 49.9065)">
							<stop offset="0" style="stop-color:#311944"/>
							<stop offset="1" style="stop-color:#6B3976"/>
						</linearGradient>
						<path style="fill:url(#SVGID_00000054953672504600677370000001351130041269325730_);" d="M1497.049,2854.947        c78.168-7.964,95.72-64.058,192.989-80.278c63.034-10.51,85.292,8.106,117.424-13.414        c25.366-16.988,38.313-46.608,44.546-78.778c-43.107,3.654-101.29,26.389-160.604,53.523        c-95.288,43.59-240.986,69.364-277.738,75.225c-1.088,0.174-25.726-8.638-25.726-8.638s-18.34,10.479-31.492,18.754        C1407.692,2848.809,1468.5,2857.855,1497.049,2854.947z"/>
					</g>
				</g>
			</g>
		</g>
	</g>
</g>
</svg>
